<?xml version="1.0" encoding="UTF-8"?>
<svg id="Ebene_1" data-name="Ebene 1" xmlns="http://www.w3.org/2000/svg" viewBox="0 0 584.76 587.04">
  <defs>
    <style>
      .cls-1 {
        fill: #002c1e;
      }

      .cls-1, .cls-2 {
        stroke: #fff;
        stroke-miterlimit: 10;
        stroke-width: 10px;
      }

      .cls-3 {
        fill: #fff;
      }

      .cls-4 {
        fill: #ffed00;
      }

      .cls-2 {
        fill: #1d1d1b;
      }

      .cls-5 {
        opacity: .26;
      }
    </style>
  </defs>
  <circle class="cls-1" cx="292.38" cy="296.34" r="283.48"/>
  <circle class="cls-2" cx="292.38" cy="296.34" r="180"/>
  <g>
    <path class="cls-3" d="M58.69,214.53c-.68,4.51-.45,5,4.22,6.19l21.51,5.53c4.66,1.2,5.11.83,6.62-3.41l2.08.53-4.48,17.43-2.08-.53c.58-4.6.5-4.98-4.16-6.18l-10.56-2.71-3.91,15.23,10.56,2.71c4.66,1.2,5.07.76,6.61-3.35l2.08.53-4.46,17.37-2.08-.53c.62-4.29.5-4.98-4.16-6.18l-21.51-5.53c-4.66-1.2-5.24-.81-6.68,3.39l-2.08-.53,4.46-17.37,2.08.53c-.71,4.39-.43,4.94,4.23,6.14l8.03,2.06,3.91-15.23-8.03-2.06c-4.66-1.2-5.14-.72-6.68,3.39l-2.08-.53,4.48-17.43,2.08.53Z"/>
    <path class="cls-3" d="M99.4,187.39c1.29.93,6.64,5.24,7.88,6.41l-12.86,27.35-1.89-.89c1.78-5.02,1.67-5.46-2.74-7.53l-20.05-9.43c-4.46-2.1-5.07-1.61-7.07,1.82l-1.94-.91,8.05-17.12c2.6-5.53,3.42-7.4,3.71-8.16.97.39,5.4,2.15,8.75,3.47l-.7,2.18c-2.01-.37-4.58-.48-5.95-.03-1.5.46-2.13.99-3.4,3.68l-1.61,3.42c-.94,2-.94,2.26.85,3.1l10.97,5.16,2.43-5.16c1.39-2.95.85-3.85-2.51-6.39l.97-2.05,11.71,5.51-.97,2.05c-4.28-.98-5.11-.86-6.55,2.2l-2.4,5.11,9.03,4.25c3.62,1.7,4.77,2.12,6.36-1.13l1.76-3.74c1.39-2.95,1.39-3.91.52-5.74-.9-2.03-2.35-4-3.74-5.68l1.39-1.73Z"/>
    <path class="cls-3" d="M130.42,160.03c-.2.29-.6.86-1.04,1.4-4.5,5.88-7.01,6.76-10.01,6.81-3.95.1-7.82-.53-11.81-.88-1.79-.17-2.54.3-3.6,1.83l-.71.92,6.96,4.82c3.86,2.68,4.53,2.43,7.44-.86l1.76,1.22-10.15,14.65-1.76-1.22c2.14-3.9,2.06-4.6-1.8-7.27l-18.26-12.65c-3.77-2.61-4.62-2.49-7.4.9l-1.76-1.22,9.62-13.88c2.95-4.26,5.12-6.37,7.82-7.41,2.61-1.02,5.61-.86,8.56,1.19,4.24,2.94,4.53,7.32,3.58,11.33,1.93.27,6.32.55,9.51.64,3.78.14,5.8-.02,7.48-.2,2-.24,2.75-.5,4.19-1.56l1.39,1.46ZM102.19,167.47c1.43-2.06,2.19-3.87,2.01-5.55-.24-2.5-1.59-4.43-4.02-6.12-5.05-3.5-8.89-1.84-10.75.84-.9,1.29-1.14,2.05-1.05,2.53.05.53.56,1.03,1.51,1.69l11.39,7.9.9-1.29Z"/>
    <path class="cls-3" d="M153.25,137.45l-1.46-1.57c2.92-3.36,2.86-3.85-.7-7.67l-15.47-16.5c3.74,10.16,7.89,21.35,11.55,31.42l-1.41,1.31c-9.22-4.33-19.6-9.4-29.59-13.97,11.87,13.84,14.32,16.47,15.75,17.99,2.18,2.25,3.58,2.05,7.06-.63l1.46,1.57-10.56,9.85-1.46-1.57c2.23-2.48,2.9-3.97.87-6.84-1.02-1.43-3.1-4.01-15.18-18.92-1.77-2.16-3.14-3.02-7.12.05l-1.46-1.57,9.2-8.58,25.67,11.04-9.19-26.41,8.99-8.38,1.46,1.57c-3.09,3.52-3.16,4.21.09,7.53l15.18,15.59c3.6,3.78,3.93,3.79,7.82,1.04l1.46,1.57-12.95,12.07Z"/>
    <path class="cls-3" d="M185.55,114.22l-1.11-1.83c2.87-2.35,2.54-2.89.55-4.6-1.4-1.19-3.55-2.94-5.5-4.47l-9.71,5.88c.38,1.87.83,4.18,1.26,6.02.85,3.76,2.28,3.43,6.43,1.4l1.11,1.83-12.3,7.45-1.11-1.84c2.9-2.3,3.42-3.23,2.59-8.42l-5.18-31.92,2.12-1.89c8.42,6.7,17.16,13.48,25.41,19.8,4.64,3.5,5.3,3.57,8.78,2.01l1.11,1.83-14.44,8.75ZM166.8,93.16c.72,4.45,1.34,8.61,2.29,12.99l7.92-4.8-10.21-8.19Z"/>
    <path class="cls-3" d="M225.99,57.8c-3.17,1.68-3.94,2.77-3.19,5.28.63,2.18,1.15,4.09,2.92,8.82l8.06,21.63-3.06,1.14-32.88-18.69,4.58,12.28c1.76,4.73,2.66,6.81,3.41,8.32,1.11,2.31,2.72,3.13,6.84,1.84l.75,2.01-13.53,5.04-.75-2.01c3.01-1.43,4.07-2.75,3.44-5.43-.51-2.04-1.13-4.04-2.89-8.76l-4.8-12.88c-.67-1.79-1.22-2.95-2.79-3.98-1.49-.99-2.86-.67-5.23-.03l-.75-2.01,10.64-3.97,29.77,16.33-3.65-9.78c-1.76-4.73-2.49-6.5-3.4-8.45-1.04-2.28-2.33-3.09-6.96-1.68l-.75-2.01,13.48-5.02.75,2.01Z"/>
    <path class="cls-3" d="M254.77,49.57c10.65-1.63,20.52,4.78,22.25,16.07,1.87,12.21-5.7,21.23-16.58,22.89-11.51,1.76-21.14-5.33-22.83-16.4-1.5-9.8,4.04-20.57,17.16-22.57ZM254.29,52.22c-5.87.9-9.31,7.29-7.76,17.44,1.48,9.69,6.61,17.41,14.38,16.22,5.47-.84,8.92-6.76,7.31-17.25-1.74-11.35-7.26-17.43-13.94-16.41Z"/>
    <path class="cls-3" d="M306.1,57.34c-1.09-3.73-2.64-8-8-8.1-3.38-.06-5.63,2.27-5.7,5.52-.06,3.19,2.06,5.14,7.13,7.79,6.17,3.19,10.07,6.28,9.96,12.02-.13,6.84-5.93,11.72-14.26,11.56-3.73-.07-7.02-1.12-9.75-1.99-.32-1.34-1.2-7.39-1.55-10.12l2.28-.48c1.09,3.68,4.23,10.06,9.94,10.17,3.55.07,5.75-2.09,5.82-5.8.07-3.36-1.99-5.38-6.83-8.08-5.99-3.36-9.89-6.34-9.78-12.37.12-6.09,4.98-10.81,13.71-10.64,4.02.08,7.03,1,8.3,1.2.19,2.15.54,5.17.94,8.83l-2.22.48Z"/>
    <path class="cls-3" d="M352.43,54.84c7.22,1.85,12.13,4.73,14.87,9.03,2.2,3.38,3.39,7.88,1.93,13.55-1.66,6.46-5.64,10.71-10.82,12.85-4.98,2.08-10.74,2.27-17.17.62l-15.51-3.98.53-2.08c4.37.76,5.01.39,6.21-4.27l5.49-21.35c1.21-4.72.71-5.33-3.38-6.74l.53-2.08,17.31,4.45ZM340.42,82.18c-1.03,3.99-.36,5.6,3.76,6.66,7.61,1.96,13.37-2.2,16.1-12.82,1.37-5.34,1.1-10.38-.87-13.46-1.76-2.97-4.49-4.51-8.27-5.48-2.09-.54-3.16-.33-3.58-.08-.64.38-1,1.3-1.42,2.93l-5.72,22.25Z"/>
    <path class="cls-3" d="M400.46,102.88c-.92,1.3-5.21,6.66-6.37,7.91l-27.41-12.74.88-1.89c5.03,1.76,5.46,1.65,7.52-2.77l9.34-20.09c2.08-4.47,1.59-5.08-1.85-7.07l.9-1.95,17.16,7.98c5.54,2.58,7.42,3.38,8.18,3.68-.39.97-2.13,5.41-3.43,8.77l-2.18-.69c.36-2.01.46-4.58,0-5.95-.46-1.49-1-2.13-3.69-3.38l-3.43-1.6c-2.01-.93-2.27-.93-3.1.86l-5.11,10.99,5.17,2.41c2.96,1.37,3.85.83,6.38-2.54l2.06.96-5.45,11.73-2.06-.96c.96-4.29.83-5.11-2.23-6.54l-5.12-2.38-4.2,9.05c-1.69,3.63-2.09,4.78,1.16,6.36l3.75,1.74c2.96,1.37,3.92,1.38,5.74.49,2.03-.91,3.99-2.37,5.67-3.76l1.73,1.38Z"/>
    <path class="cls-3" d="M444.53,99.48c3.65,2.8,5.93,5.57,6.87,8.27,1.14,3.29.74,6.49-1.69,9.67-5.12,6.67-12.96,5.12-17.94,1.37-.46-.35-1.03-.86-1.32-1.16l-2.15-2.75-4.8,6.26c-2.97,3.87-2.78,4.3.95,7.75l-1.31,1.7-14.69-11.27,1.31-1.7c3.78,2.24,4.35,2.46,7.32-1.41l13.49-17.58c2.97-3.87,2.82-4.63-.47-7.52l1.31-1.7,13.12,10.07ZM429.78,112.95c.34.7,1.13,1.59,2.1,2.34,2.12,1.63,6.54,3.05,11.21-3.03,3.95-5.15,2.44-9.02-.56-11.32-.97-.74-1.7-.94-2.16-.92-.54.03-.98.42-1.51,1.11l-9.07,11.83Z"/>
    <path class="cls-3" d="M446,151.54l1.54-1.49c2.93,2.27,3.38,1.83,4.61-.49.84-1.63,2.07-4.11,3.13-6.35l-7.9-8.16c-1.74.79-3.89,1.74-5.58,2.57-3.48,1.66-2.84,2.99.07,6.58l-1.54,1.49-10-10.33,1.54-1.49c2.88,2.31,3.91,2.62,8.79.65l29.97-12.16,2.32,1.64c-4.66,9.7-9.32,19.72-13.65,29.18-2.38,5.3-2.3,5.96,0,9l-1.54,1.49-11.74-12.13ZM462.35,128.58c-4.17,1.69-8.1,3.22-12.16,5.12l6.44,6.65,5.72-11.78Z"/>
    <path class="cls-3" d="M499.34,158.22c4.09,6.23,5.79,11.67,4.93,16.69-.65,3.98-2.79,8.1-7.69,11.32-5.58,3.66-11.38,4.12-16.65,2.22-5.08-1.82-9.47-5.55-13.12-11.1l-8.79-13.39,1.79-1.18c2.72,3.51,3.44,3.66,7.47,1.02l18.42-12.1c4.07-2.67,4.11-3.46,2.03-7.26l1.79-1.18,9.81,14.94ZM472.06,170.35c-3.44,2.26-4.03,3.9-1.7,7.45,4.32,6.57,11.37,7.38,20.53,1.36,4.6-3.02,7.8-6.93,8.41-10.54.69-3.38-.29-6.36-2.43-9.62-1.18-1.8-2.11-2.37-2.6-2.47-.72-.15-1.61.29-3.02,1.21l-19.2,12.6Z"/>
    <path class="cls-3" d="M502.57,226.06c-1.56.34-8.34,1.42-10.04,1.57l-11.71-27.86,1.92-.81c2.54,4.68,2.94,4.89,7.43,3l20.42-8.59c4.54-1.91,4.59-2.69,3.38-6.47l1.98-.83,7.33,17.45c2.37,5.64,3.21,7.49,3.58,8.22-.94.46-5.21,2.57-8.44,4.18l-1.15-1.98c1.61-1.25,3.42-3.08,4-4.4.66-1.42.69-2.25-.46-4.99l-1.47-3.49c-.86-2.04-1.05-2.21-2.87-1.45l-11.17,4.7,2.21,5.26c1.26,3.01,2.29,3.21,6.43,2.42l.88,2.09-11.92,5.01-.88-2.09c3.6-2.52,4.06-3.22,2.75-6.33l-2.19-5.21-9.2,3.87c-3.69,1.55-4.77,2.13-3.42,5.48l1.6,3.81c1.26,3.01,1.98,3.65,3.92,4.23,2.11.69,4.54.93,6.72,1.03l.35,2.19Z"/>
    <path class="cls-3" d="M511.19,259.36c-2.53.14-8.89.01-10.54-.12l-6.84-28.06,2.08-.51c1.55,4.89,2.06,5.25,6.79,4.1l21.47-5.24c4.73-1.16,5.05-1.83,4.35-6.16l2.08-.51,4.3,17.65-2.08.51c-1.47-4.32-2-4.79-6.74-3.63l-21.86,5.33c-3.1.76-4.48,1.21-3.78,4.34-.03.13.61,2.73.66,2.96.79,3.22,1.67,3.91,3.52,4.89,1.39.8,4.17,1.68,6.73,2.13l-.15,2.31Z"/>
  </g>
  <g>
    <path class="cls-3" d="M86.19,352.63c2.03,7.17,2.01,12.86-.33,17.4-1.82,3.6-5.1,6.89-10.74,8.48-6.42,1.81-12.09.51-16.55-2.89-4.3-3.26-7.37-8.14-9.17-14.53l-4.36-15.41,2.06-.58c1.54,4.16,2.18,4.53,6.82,3.22l21.21-6c4.69-1.33,4.96-2.07,4.12-6.31l2.07-.58,4.86,17.2ZM56.52,356c-3.96,1.12-5.02,2.51-3.86,6.6,2.14,7.56,8.62,10.45,19.17,7.47,5.3-1.5,9.52-4.26,11.19-7.52,1.68-3.02,1.64-6.15.58-9.9-.59-2.07-1.3-2.9-1.73-3.14-.65-.36-1.63-.21-3.24.25l-22.1,6.25Z"/>
    <path class="cls-3" d="M103.54,394.68c4.97,9.56,2.07,20.97-8.07,26.24-10.96,5.69-21.94,1.42-27.01-8.34-5.37-10.33-1.75-21.73,8.19-26.89,8.8-4.57,20.77-2.79,26.89,8.99ZM100.88,395.08c-2.74-5.27-9.9-6.47-19.01-1.74-8.7,4.52-14.36,11.86-10.74,18.83,2.55,4.91,9.27,6.27,18.69,1.38,10.19-5.29,14.17-12.48,11.06-18.47Z"/>
    <path class="cls-3" d="M136.98,447.55c-2.58-2.48-3.86-2.88-6.01-1.38-1.88,1.28-3.52,2.37-7.46,5.53l-18.02,14.43-2.04-2.55,7.46-37.08-10.23,8.19c-3.94,3.15-5.63,4.66-6.84,5.85-1.85,1.78-2.12,3.57.39,7.07l-1.67,1.34-9.03-11.27,1.67-1.34c2.3,2.41,3.89,3,6.24,1.57,1.78-1.12,3.48-2.34,7.42-5.49l10.73-8.59c1.49-1.2,2.42-2.08,2.9-3.89.48-1.72-.26-2.92-1.61-4.98l1.68-1.34,7.1,8.86-6.19,33.38,8.15-6.53c3.94-3.15,5.4-4.4,6.96-5.87,1.84-1.7,2.21-3.18-.59-7.14l1.68-1.34,8.99,11.23-1.67,1.34Z"/>
    <path class="cls-3" d="M129.49,487.81l1.41-1.62c3.11,2.02,3.53,1.53,4.55-.88.7-1.7,1.71-4.28,2.58-6.6l-8.56-7.46c-1.66.94-3.73,2.06-5.35,3.04-3.32,1.95-2.57,3.22.63,6.55l-1.41,1.62-10.85-9.45,1.41-1.62c3.07,2.06,4.12,2.28,8.81-.1l28.82-14.66,2.45,1.44c-3.82,10.06-7.61,20.45-11.12,30.24-1.92,5.48-1.79,6.13.76,8.97l-1.41,1.62-12.74-11.09ZM143.83,463.54c-4.02,2.04-7.8,3.9-11.68,6.14l6.98,6.08,4.69-12.22Z"/>
    <path class="cls-3" d="M197.93,491.56c-3.36-1.64-4.78-1.22-6.07.44-1.05,1.39-2.18,3.02-4.29,6.48l-3.96,6.49c-2.6,4.26-5.92,8.14-10.57,9.38-3.74.98-7.9-.13-11.43-2.28-3.28-2-6.14-4.7-7.33-8-1.55-3.94-1.1-7.81,2.28-13.35l7.64-12.53c2.78-4.55,2.54-5.17-1.02-7.83l1.12-1.83,15.36,9.37-1.12,1.83c-3.94-1.93-4.6-1.85-7.38,2.7l-8.03,13.17c-3.38,5.55-2.88,10.88,2.44,14.12,5.92,3.61,11.16.83,15.69-6.6l3.77-6.19c2.08-3.42,3.02-5.29,3.83-6.84,1.19-2.4.1-3.74-3.26-6.06l1.12-1.83,12.33,7.52-1.12,1.83Z"/>
    <path class="cls-3" d="M185.58,524.13l.84-1.97c4.23,1.36,4.85,1.25,6.76-3.23l8.67-20.32c1.91-4.48,1.56-5.14-2.32-7.17l.84-1.97,16.55,7.06-.84,1.97c-4.18-1.34-4.87-1.19-6.78,3.29l-8.67,20.32c-1.89,4.43-1.54,4.95,2.35,7.12l-.84,1.97-16.55-7.06Z"/>
    <path class="cls-3" d="M258.27,510.52c-3.55-.45-4.81,0-5.64,2.49-.74,2.15-1.4,4.01-2.67,8.89l-5.81,22.34-3.16-.82-16.2-34.18-3.3,12.69c-1.27,4.88-1.73,7.1-1.98,8.77-.42,2.53.43,4.13,4.54,5.44l-.54,2.08-13.97-3.64.54-2.08c3.29.55,4.91.08,5.94-2.47.75-1.96,1.39-3.95,2.66-8.84l3.46-13.3c.48-1.85.69-3.12,0-4.86-.65-1.67-1.96-2.19-4.27-3.03l.54-2.08,10.99,2.86,15,30.46,2.63-10.1c1.27-4.88,1.7-6.75,2.07-8.87.46-2.46-.14-3.87-4.74-5.37l.54-2.08,13.92,3.62-.54,2.08Z"/>
    <path class="cls-3" d="M281.23,519.48c-.83-3.8-2.08-8.16-7.41-8.64-3.36-.3-5.78,1.87-6.07,5.11-.28,3.18,1.69,5.28,6.57,8.27,5.93,3.62,9.61,6.97,9.09,12.69-.61,6.82-6.74,11.28-15.03,10.53-3.71-.33-6.93-1.61-9.58-2.66-.23-1.36-.68-7.46-.84-10.21l2.31-.32c.83,3.74,3.52,10.33,9.2,10.84,3.54.32,5.88-1.69,6.21-5.38.3-3.35-1.61-5.5-6.25-8.54-5.74-3.77-9.43-7.02-8.89-13.02.54-6.07,5.73-10.44,14.43-9.66,4,.36,6.94,1.49,8.2,1.78.04,2.16.18,5.2.32,8.88l-2.25.32Z"/>
    <path class="cls-3" d="M321.87,536.63c-.21,1.58-1.49,8.33-1.92,9.98l-30.18,1.59-.11-2.08c5.26-.8,5.6-1.11,5.34-5.97l-1.17-22.13c-.26-4.92-.98-5.23-4.95-5.37l-.11-2.14,18.9-1c6.11-.32,8.14-.49,8.95-.59.11,1.04.65,5.77,1.08,9.35l-2.25.41c-.63-1.94-1.74-4.26-2.78-5.25-1.11-1.1-1.88-1.41-4.85-1.25l-3.78.2c-2.21.12-2.44.25-2.33,2.21l.64,12.11,5.7-.3c3.26-.17,3.79-1.07,4.45-5.23l2.27-.12.68,12.92-2.27.12c-1.16-4.24-1.66-4.91-5.03-4.73l-5.64.3.53,9.96c.21,4,.39,5.21,4,5.07l4.13-.22c3.26-.17,4.11-.62,5.3-2.25,1.37-1.76,2.42-3.96,3.24-5.98l2.18.41Z"/>
    <path class="cls-3" d="M357.67,529.11c.05,2.54-.29,8.89-.48,10.53l-28.28,5.9-.44-2.1c4.95-1.39,5.32-1.88,4.32-6.65l-4.52-21.63c-1-4.77-1.66-5.1-6.01-4.55l-.44-2.1,17.79-3.71.44,2.1c-4.36,1.33-4.85,1.84-3.85,6.61l4.6,22.03c.65,3.12,1.06,4.52,4.21,3.92.13.03,2.75-.51,2.98-.56,3.25-.68,3.96-1.54,5.01-3.36.85-1.36,1.82-4.11,2.36-6.65l2.31.23Z"/>
    <path class="cls-3" d="M381.44,502.19c-1.49-2.3-3.44-3.95-4.26-4.52-1.39-.8-1.99-1.08-5.23.07l-3.51,1.24,9.09,25.7c1.62,4.59,2.29,4.73,7.31,3.38l.72,2.02-18.22,6.45-.72-2.02c4.53-2.03,4.91-2.54,3.28-7.13l-9.09-25.7-3.35,1.18c-3.07,1.09-3.78,1.89-4.36,3.57-.4,1.31-.47,3.55-.41,5.99l-2.08.74c-1.03-4.13-2.15-8.53-2.97-11.19l1.65-.58c1.27.97,1.97.84,3.61.26l21.95-7.77c1.48-.52,2.13-1.12,2.7-2.49l1.59-.56c.87,2.28,2.79,7.01,4.32,10.47l-2.03.9Z"/>
    <path class="cls-3" d="M418.26,472.89c-3.05,2.17-3.36,3.62-2.51,5.54.72,1.59,1.61,3.36,3.64,6.87l3.8,6.58c2.5,4.32,4.32,9.09,3.19,13.77-.92,3.75-3.89,6.88-7.47,8.95-3.33,1.92-7.06,3.15-10.53,2.61-4.2-.52-7.38-2.76-10.64-8.39l-7.35-12.7c-2.67-4.62-3.33-4.71-7.36-2.84l-1.07-1.86,15.57-9.01,1.07,1.86c-3.58,2.54-3.83,3.15-1.16,7.77l7.72,13.35c3.25,5.62,8.17,7.73,13.57,4.61,6-3.47,6.06-9.4,1.71-16.93l-3.63-6.28c-2-3.46-3.2-5.18-4.17-6.63-1.54-2.19-3.24-1.88-6.88-.04l-1.07-1.86,12.5-7.23,1.07,1.86Z"/>
    <path class="cls-3" d="M470.05,475.74c-.27.23-.8.68-1.37,1.08-5.87,4.51-8.53,4.7-11.43,3.97-3.84-.93-7.41-2.54-11.17-3.92-1.68-.63-2.53-.37-3.95.83l-.93.71,5.47,6.47c3.03,3.59,3.74,3.52,7.41,1.1l1.39,1.64-13.61,11.5-1.38-1.64c3.08-3.21,3.18-3.91.15-7.49l-14.34-16.96c-2.96-3.5-3.82-3.61-7.37-1.06l-1.39-1.64,12.89-10.9c3.96-3.35,6.6-4.82,9.47-5.12,2.79-.31,5.64.63,7.96,3.37,3.33,3.94,2.47,8.24.51,11.88,1.79.76,5.96,2.18,9.01,3.09,3.62,1.12,5.6,1.49,7.27,1.75,2,.29,2.79.23,4.45-.42l.96,1.77ZM440.87,475.58c1.91-1.62,3.12-3.17,3.38-4.84.42-2.48-.38-4.69-2.29-6.95-3.97-4.7-8.1-4.08-10.59-1.98-1.2,1.01-1.63,1.68-1.67,2.17-.09.53.27,1.14,1.02,2.02l8.95,10.59,1.2-1.01Z"/>
    <path class="cls-3" d="M472.89,416.52c-1.89,3.04-2.01,4.38-.1,6.16,1.64,1.57,3.06,2.95,6.96,6.14l17.87,14.61-2.06,2.52-37.83.44,10.15,8.3c3.91,3.19,5.73,4.54,7.15,5.46,2.12,1.43,3.93,1.33,6.84-1.86l1.66,1.36-9.14,11.18-1.66-1.36c1.88-2.75,2.12-4.43.24-6.43-1.47-1.5-3.01-2.91-6.92-6.11l-10.64-8.7c-1.48-1.21-2.54-1.93-4.41-2.03-1.79-.11-2.81.87-4.53,2.61l-1.66-1.36,7.19-8.79,33.94-.91-8.08-6.61c-3.91-3.19-5.43-4.36-7.2-5.58-2.04-1.44-3.58-1.49-6.86,2.06l-1.66-1.36,9.11-11.13,1.66,1.36Z"/>
    <path class="cls-3" d="M503.85,432.57l-1.84-1.1c1.92-4.01,1.89-4.64-2.3-7.13l-18.98-11.31c-4.18-2.49-4.88-2.23-7.42,1.34l-1.84-1.1,9.21-15.46,1.84,1.1c-1.89,3.96-1.84,4.67,2.35,7.16l18.98,11.31c4.13,2.46,4.7,2.19,7.37-1.37l1.84,1.1-9.21,15.46Z"/>
    <path class="cls-3" d="M520.76,376.78c1.32.89,6.8,5.03,8.08,6.15l-11.98,27.74-1.92-.83c1.62-5.07,1.49-5.51-2.98-7.44l-20.34-8.78c-4.53-1.95-5.12-1.45-7.01,2.05l-1.97-.85,7.5-17.37c2.42-5.61,3.18-7.51,3.45-8.28.98.36,5.46,1.98,8.86,3.19l-.63,2.2c-2.02-.3-4.59-.33-5.94.16-1.48.5-2.1,1.06-3.28,3.79l-1.5,3.47c-.88,2.03-.86,2.29.95,3.07l11.13,4.81,2.26-5.24c1.29-2.99.72-3.87-2.71-6.31l.9-2.08,11.88,5.13-.9,2.08c-4.31-.85-5.13-.69-6.47,2.41l-2.24,5.18,9.16,3.96c3.67,1.59,4.84,1.96,6.32-1.33l1.64-3.79c1.29-2.99,1.27-3.96.34-5.75-.97-2-2.48-3.92-3.92-5.56l1.33-1.77Z"/>
    <path class="cls-3" d="M541.44,338.16c-.08.34-.25,1.02-.48,1.68-2.13,7.09-4.17,8.8-6.96,9.9-3.66,1.49-7.5,2.27-11.36,3.34-1.73.47-2.27,1.17-2.72,2.98l-.34,1.12,8.22,2.05c4.56,1.14,5.09.67,6.66-3.44l2.08.52-4.32,17.29-2.08-.52c.62-4.41.3-5.03-4.26-6.17l-21.55-5.38c-4.45-1.11-5.21-.7-6.6,3.45l-2.08-.52,4.09-16.38c1.26-5.03,2.54-7.77,4.69-9.69,2.08-1.88,4.94-2.79,8.43-1.92,5.01,1.25,6.82,5.24,7.35,9.34,1.9-.43,6.11-1.72,9.12-2.76,3.59-1.2,5.42-2.07,6.93-2.83,1.79-.93,2.39-1.44,3.37-2.94l1.81.87ZM517.66,355.08c.61-2.43.68-4.39-.08-5.9-1.11-2.26-3.05-3.58-5.92-4.3-5.96-1.49-8.96,1.42-9.75,4.59-.38,1.53-.34,2.32-.09,2.74.24.48.89.76,2.01,1.04l13.45,3.36.38-1.52Z"/>
  </g>
  <g>
    <path class="cls-3" d="M523.21,281.31c-1.05.74-2.15,1.42-3.21,2.08-1.18.73-2.4,1.48-3.52,2.31-2.42,1.79-4,3.7-4.69,5.69-.62,1.78-.71,4.08-.23,6.3.59,2.74,1.99,5.29,4.07,7.36,2.5,2.5,5.34,3.54,7.28,3.98,2.28.51,4.67.46,6.39-.14,1.99-.69,3.91-2.27,5.69-4.69.83-1.12,1.58-2.34,2.31-3.52.66-1.06,1.34-2.16,2.08-3.21,1.61-2.27,3.52-4.31,5.71-6.08-.93-3.58-2.8-6.96-5.61-9.76-2.97-2.97-6.58-4.88-10.39-5.76-1.72,2.08-3.69,3.91-5.87,5.45Z"/>
    <path class="cls-3" d="M545.24,292.06c.02.09.04.18.06.27-.02-.09-.04-.18-.06-.27Z"/>
    <path class="cls-3" d="M545.35,292.58c.02.09.04.18.05.27-.02-.09-.03-.18-.05-.27Z"/>
    <path class="cls-3" d="M545.44,293.1c.02.09.03.18.05.27-.01-.09-.03-.18-.05-.27Z"/>
    <path class="cls-3" d="M545.11,291.54c.02.09.05.19.07.28-.02-.09-.05-.19-.07-.28Z"/>
    <path class="cls-3" d="M527.39,275.54c-.11-.02-.22-.03-.33-.05.11.01.22.03.33.05Z"/>
    <path class="cls-3" d="M545.51,293.5c-1.74,1.51-3.28,3.21-4.6,5.07-.71,1-1.37,2.07-2.01,3.11-.75,1.21-1.52,2.47-2.4,3.65-2.02,2.74-4.24,4.54-6.6,5.36-2.07.72-4.77.79-7.43.2-2.18-.49-5.38-1.66-8.21-4.49-2.33-2.33-3.92-5.21-4.58-8.31-.55-2.55-.44-5.22.3-7.33.82-2.36,2.63-4.58,5.36-6.6,1.18-.87,2.44-1.65,3.65-2.4,1.04-.64,2.11-1.3,3.11-2.01,1.75-1.24,3.35-2.67,4.79-4.28-6.36-.79-13.01,1.26-17.89,6.14-8.41,8.41-8.41,22.05,0,30.46,8.41,8.41,22.05,8.41,30.46,0,5.06-5.06,7.08-12.01,6.05-18.58Z"/>
    <path class="cls-3" d="M528.96,275.83c-.09-.02-.18-.04-.27-.06.09.02.18.04.27.06Z"/>
    <path class="cls-3" d="M527.92,275.63c-.1-.02-.2-.03-.31-.05.1.02.2.03.31.05Z"/>
    <path class="cls-3" d="M528.44,275.72c-.1-.02-.19-.04-.29-.05.1.02.19.04.29.05Z"/>
  </g>
  <g>
    <path class="cls-3" d="M59.02,283.64c-1.05.74-2.15,1.42-3.21,2.08-1.18.73-2.4,1.48-3.52,2.31-2.42,1.79-4,3.7-4.69,5.69-.62,1.78-.71,4.08-.23,6.3.59,2.74,1.99,5.29,4.07,7.36,2.5,2.5,5.34,3.54,7.28,3.98,2.28.51,4.67.46,6.39-.14,1.99-.69,3.91-2.27,5.69-4.69.83-1.12,1.58-2.34,2.31-3.52.66-1.06,1.34-2.16,2.08-3.21,1.61-2.27,3.52-4.31,5.71-6.08-.93-3.58-2.8-6.96-5.61-9.76-2.97-2.97-6.58-4.88-10.39-5.76-1.72,2.08-3.69,3.91-5.87,5.45Z"/>
    <path class="cls-3" d="M81.05,294.4c.02.09.04.18.06.27-.02-.09-.04-.18-.06-.27Z"/>
    <path class="cls-3" d="M81.16,294.91c.02.09.04.18.05.27-.02-.09-.03-.18-.05-.27Z"/>
    <path class="cls-3" d="M81.26,295.43c.02.09.03.18.05.27-.01-.09-.03-.18-.05-.27Z"/>
    <path class="cls-3" d="M80.92,293.87c.02.09.05.19.07.28-.02-.09-.05-.19-.07-.28Z"/>
    <path class="cls-3" d="M63.2,277.87c-.11-.02-.22-.03-.33-.05.11.01.22.03.33.05Z"/>
    <path class="cls-3" d="M81.32,295.83c-1.74,1.51-3.28,3.21-4.6,5.07-.71,1-1.37,2.07-2.01,3.11-.75,1.21-1.52,2.47-2.4,3.65-2.02,2.74-4.24,4.54-6.6,5.36-2.07.72-4.77.79-7.43.2-2.18-.49-5.38-1.66-8.21-4.49-2.33-2.33-3.92-5.21-4.58-8.31-.55-2.55-.44-5.22.3-7.33.82-2.36,2.63-4.58,5.36-6.6,1.18-.87,2.44-1.65,3.65-2.4,1.04-.64,2.11-1.3,3.11-2.01,1.75-1.24,3.35-2.67,4.79-4.28-6.36-.79-13.01,1.26-17.89,6.14-8.41,8.41-8.41,22.05,0,30.46,8.41,8.41,22.05,8.41,30.46,0,5.06-5.06,7.08-12.01,6.05-18.58Z"/>
    <path class="cls-3" d="M64.78,278.16c-.09-.02-.18-.04-.27-.06.09.02.18.04.27.06Z"/>
    <path class="cls-3" d="M63.73,277.96c-.1-.02-.2-.03-.31-.05.1.02.2.03.31.05Z"/>
    <path class="cls-3" d="M64.25,278.05c-.1-.02-.19-.04-.29-.05.1.02.19.04.29.05Z"/>
  </g>
  <g>
    <g>
      <path class="cls-3" d="M329.71,379.52l-5.52-1.58s-26.81-26.41-33.9-38.24c-7.11-11.82-2.51-75.06-44.15-116.69-28.38-28.38-63.76,5.01-72,13.24-8.24,8.25-41.64,43.63-13.26,72.01,41.64,41.63,104.87,37.05,116.7,44.14,11.82,7.11,38.24,33.91,38.24,33.91l1.58,5.52,3.75,3.74c5.42-2.77,9.53-6.87,12.31-12.32l-3.75-3.74ZM251.27,262.19c1.44-1.45,3.78-1.45,5.21,0,1.44,1.45,1.44,3.79,0,5.23-1.44,1.44-3.78,1.44-5.21,0-1.46-1.44-1.46-3.78,0-5.23ZM251.2,279.16c1.44-1.45,3.78-1.45,5.23,0,1.45,1.44,1.45,3.78,0,5.21-1.45,1.44-3.79,1.44-5.23,0-1.44-1.44-1.44-3.78,0-5.21ZM251.12,296.15c1.44-1.44,3.78-1.44,5.21,0,1.45,1.45,1.45,3.78,0,5.24-1.44,1.44-3.78,1.44-5.21,0-1.46-1.46-1.46-3.79,0-5.24ZM242.81,253.74c1.45-1.45,3.79-1.45,5.23,0,1.44,1.45,1.44,3.79,0,5.23-1.44,1.44-3.78,1.44-5.23,0-1.45-1.44-1.45-3.78,0-5.23ZM242.75,270.7c1.45-1.44,3.78-1.44,5.23,0,1.45,1.45,1.45,3.79,0,5.23-1.45,1.44-3.78,1.44-5.23,0-1.44-1.44-1.44-3.78,0-5.23ZM242.67,287.7c1.44-1.44,3.78-1.44,5.21,0,1.44,1.45,1.44,3.78,0,5.23s-3.78,1.45-5.21,0c-1.45-1.45-1.45-3.78,0-5.23ZM225.9,236.83c1.44-1.44,3.79-1.44,5.23,0,1.44,1.44,1.44,3.78,0,5.23-1.44,1.44-3.79,1.44-5.23,0-1.44-1.45-1.44-3.79,0-5.23ZM225.83,253.8c1.46-1.44,3.8-1.44,5.24,0,1.44,1.44,1.44,3.78,0,5.23-1.44,1.45-3.78,1.45-5.24,0-1.44-1.45-1.44-3.79,0-5.23ZM225.75,270.8c1.45-1.46,3.79-1.46,5.23,0,1.44,1.44,1.44,3.78,0,5.21-1.44,1.44-3.78,1.44-5.23,0-1.44-1.44-1.44-3.78,0-5.21ZM225.66,287.79c1.44-1.44,3.78-1.44,5.24,0,1.44,1.44,1.44,3.78,0,5.23-1.46,1.45-3.8,1.45-5.24,0-1.44-1.45-1.44-3.79,0-5.23ZM225.58,304.79c1.44-1.45,3.78-1.45,5.21,0,1.45,1.45,1.45,3.79,0,5.23-1.44,1.44-3.78,1.44-5.21,0-1.44-1.44-1.44-3.78,0-5.23ZM217.38,245.34c1.46-1.44,3.8-1.44,5.24,0,1.44,1.44,1.44,3.78,0,5.24-1.44,1.44-3.78,1.44-5.24,0-1.44-1.46-1.44-3.8,0-5.24ZM217.3,262.34c1.44-1.45,3.79-1.45,5.23,0,1.44,1.45,1.44,3.79,0,5.23-1.44,1.44-3.79,1.44-5.23,0-1.44-1.44-1.44-3.78,0-5.23ZM217.21,279.34c1.45-1.44,3.78-1.44,5.24,0,1.44,1.44,1.44,3.78,0,5.21-1.46,1.46-3.79,1.46-5.24,0-1.44-1.44-1.44-3.78,0-5.21ZM217.12,296.32c1.44-1.44,3.78-1.44,5.21,0,1.45,1.46,1.45,3.8,0,5.24-1.44,1.44-3.78,1.44-5.21,0-1.44-1.44-1.44-3.78,0-5.24ZM217.03,313.33c1.44-1.44,3.78-1.44,5.23,0,1.44,1.44,1.44,3.78,0,5.21s-3.79,1.45-5.23,0c-1.45-1.44-1.45-3.78,0-5.21ZM208.94,236.89c1.44-1.44,3.79-1.44,5.23,0,1.44,1.44,1.44,3.78,0,5.23s-3.79,1.45-5.23,0c-1.45-1.45-1.45-3.79,0-5.23ZM208.85,253.89c1.44-1.45,3.78-1.45,5.23,0,1.45,1.44,1.45,3.79,0,5.23-1.45,1.44-3.79,1.44-5.23,0-1.44-1.44-1.44-3.79,0-5.23ZM208.75,270.89c1.45-1.44,3.79-1.44,5.23,0,1.45,1.44,1.45,3.78,0,5.21-1.44,1.46-3.78,1.46-5.23,0-1.44-1.44-1.44-3.78,0-5.21ZM208.67,287.88c1.44-1.45,3.78-1.45,5.21,0,1.44,1.44,1.44,3.79,0,5.23-1.44,1.44-3.78,1.44-5.21,0-1.45-1.44-1.45-3.79,0-5.23ZM208.57,304.88c1.45-1.45,3.79-1.45,5.24,0,1.44,1.44,1.44,3.78,0,5.21-1.45,1.46-3.79,1.46-5.24,0-1.44-1.44-1.44-3.78,0-5.21ZM200.4,245.44c1.44-1.44,3.78-1.44,5.23,0,1.45,1.44,1.45,3.79,0,5.23-1.45,1.44-3.79,1.44-5.23,0-1.44-1.44-1.44-3.79,0-5.23ZM200.31,262.43c1.44-1.45,3.78-1.45,5.21,0,1.45,1.44,1.45,3.78,0,5.21-1.44,1.45-3.78,1.45-5.21,0-1.46-1.44-1.46-3.78,0-5.21ZM200.21,279.43c1.45-1.45,3.79-1.45,5.23,0,1.44,1.44,1.44,3.78,0,5.23-1.44,1.44-3.78,1.44-5.23,0-1.44-1.45-1.44-3.79,0-5.23ZM200.11,296.43c1.46-1.45,3.79-1.45,5.24,0,1.44,1.44,1.44,3.78,0,5.21-1.45,1.45-3.78,1.45-5.24,0-1.44-1.44-1.44-3.78,0-5.21ZM200.07,313.39c1.44-1.45,3.78-1.45,5.21,0,1.44,1.45,1.44,3.78,0,5.23-1.44,1.44-3.78,1.44-5.21,0-1.45-1.45-1.45-3.78,0-5.23ZM191.94,236.99c1.44-1.44,3.78-1.44,5.21,0,1.46,1.44,1.46,3.78,0,5.23-1.44,1.44-3.78,1.44-5.21,0-1.44-1.45-1.44-3.79,0-5.23ZM191.86,253.97c1.44-1.44,3.78-1.44,5.21,0,1.44,1.45,1.44,3.79,0,5.24-1.44,1.44-3.78,1.44-5.21,0-1.46-1.45-1.46-3.79,0-5.24ZM191.76,270.98c1.45-1.45,3.79-1.45,5.23,0,1.44,1.44,1.44,3.78,0,5.23-1.44,1.44-3.78,1.44-5.23,0-1.44-1.45-1.44-3.79,0-5.23ZM191.66,287.97c1.45-1.44,3.8-1.44,5.24,0,1.44,1.45,1.44,3.79,0,5.23-1.44,1.45-3.79,1.45-5.24,0-1.44-1.44-1.44-3.78,0-5.23ZM191.6,304.93c1.45-1.44,3.79-1.44,5.23,0,1.45,1.46,1.45,3.8,0,5.24-1.44,1.44-3.78,1.44-5.23,0-1.44-1.44-1.44-3.78,0-5.24ZM183.4,245.52c1.45-1.44,3.79-1.44,5.23,0,1.44,1.46,1.44,3.79,0,5.24-1.44,1.44-3.78,1.44-5.23,0-1.45-1.45-1.45-3.78,0-5.24ZM183.3,262.53c1.44-1.44,3.79-1.44,5.23,0,1.45,1.44,1.45,3.78,0,5.21-1.44,1.45-3.79,1.45-5.23,0-1.44-1.44-1.44-3.78,0-5.21ZM183.21,279.51c1.45-1.44,3.79-1.44,5.24,0,1.44,1.44,1.44,3.79,0,5.24-1.45,1.44-3.79,1.44-5.24,0-1.44-1.45-1.44-3.8,0-5.24ZM183.15,296.48c1.45-1.44,3.79-1.44,5.23,0,1.45,1.45,1.45,3.8,0,5.24-1.44,1.44-3.78,1.44-5.23,0-1.44-1.44-1.44-3.79,0-5.24ZM174.85,254.08c1.44-1.45,3.78-1.45,5.23,0,1.45,1.44,1.45,3.78,0,5.21-1.45,1.45-3.79,1.45-5.23,0-1.44-1.44-1.44-3.78,0-5.21ZM174.77,271.06c1.44-1.44,3.78-1.44,5.23,0,1.44,1.44,1.44,3.79,0,5.24-1.45,1.44-3.79,1.44-5.23,0-1.45-1.45-1.45-3.8,0-5.24ZM174.7,288.02c1.44-1.44,3.79-1.44,5.24,0,1.44,1.45,1.44,3.8,0,5.24-1.45,1.44-3.8,1.44-5.24,0-1.44-1.44-1.44-3.79,0-5.24ZM210.05,329.62c-4.75-1.82-9.41-3.82-14.03-5.94-2.29-1.06-4.59-2.17-6.86-3.32-2.26-1.13-4.54-2.37-6.71-3.72-8.71-5.37-16.72-12.3-22-21.29-1.31-2.28-2.23-4.83-2.71-7.39-.49-2.58-.51-5.21-.27-7.79.26-2.57.87-5.09,1.67-7.52.79-2.42,1.85-4.75,3.1-6.96-1.94,4.68-3.26,9.6-3.41,14.57-.19,4.94.84,9.9,3.46,13.98,2.56,4.23,5.92,7.95,9.55,11.3,3.65,3.38,7.68,6.34,11.92,8.94,4.21,2.64,8.78,4.8,13.28,7.05,4.51,2.23,9.11,4.29,13.72,6.3,9.27,3.96,18.7,7.6,28.37,10.57-9.91-2.06-19.63-5.14-29.09-8.8ZM239.25,318.47c-1.45,1.44-3.79,1.44-5.23,0-1.45-1.45-1.45-3.78,0-5.23,1.44-1.45,3.78-1.45,5.23,0,1.44,1.45,1.44,3.78,0,5.23ZM239.35,301.47c-1.45,1.44-3.8,1.44-5.24,0-1.44-1.44-1.44-3.79,0-5.23,1.44-1.44,3.79-1.44,5.24,0,1.44,1.44,1.44,3.79,0,5.23ZM239.43,284.47c-1.44,1.44-3.78,1.45-5.23,0-1.44-1.44-1.44-3.78,0-5.23,1.45-1.45,3.79-1.45,5.23,0,1.44,1.45,1.44,3.79,0,5.23ZM239.52,267.47c-1.44,1.45-3.78,1.45-5.23,0-1.45-1.44-1.45-3.79,0-5.23,1.45-1.44,3.79-1.44,5.23,0,1.44,1.44,1.44,3.79,0,5.23ZM239.58,250.51c-1.44,1.44-3.78,1.44-5.23,0-1.44-1.44-1.44-3.79,0-5.23,1.45-1.44,3.79-1.44,5.23,0,1.44,1.44,1.44,3.79,0,5.23ZM242.56,304.69c1.45-1.44,3.79-1.44,5.23,0,1.45,1.45,1.45,3.79,0,5.23-1.44,1.44-3.78,1.44-5.23,0-1.44-1.44-1.44-3.78,0-5.23ZM278.92,341.05s-1.02,1.59-6.27,1.45c-5.31-.13-30.77-3.09-30.46-10.01.3-6.91,12.13-6.31,17-11.18,4.86-4.86,4.27-16.71,11.19-17.01s9.88,25.17,10,30.48c.14,5.24-1.45,6.27-1.45,6.27ZM291.65,355.48c-.19,1.22-.43,2.43-.92,3.65-.49-1.22-.74-2.43-.92-3.65-.16-1.22-.25-2.43-.25-3.65s.08-2.43.26-3.65c.19-1.22.42-2.43.91-3.65.49,1.22.72,2.43.91,3.65.18,1.22.26,2.43.26,3.65s-.08,2.43-.25,3.65ZM299.34,362.51c-.19.95-.43,1.88-.92,2.83-.49-.95-.74-1.88-.91-2.83-.18-.95-.26-1.88-.26-2.83s.08-1.88.26-2.82c.19-.95.43-1.88.91-2.83.49.95.74,1.88.92,2.83.16.94.25,1.88.25,2.82s-.07,1.88-.25,2.83ZM307.03,370.79c-.19.92-.43,1.85-.92,2.77-.49-.92-.72-1.85-.91-2.77-.18-.92-.26-1.85-.26-2.77.01-.92.08-1.84.26-2.76.19-.92.43-1.85.91-2.77.49.92.74,1.85.92,2.77.16.92.25,1.84.25,2.76.01.92-.07,1.85-.25,2.77ZM314.72,378.69c-.19.89-.43,1.78-.91,2.68-.49-.9-.74-1.79-.92-2.68-.18-.9-.26-1.79-.25-2.68,0-.89.08-1.79.25-2.68.19-.89.43-1.78.92-2.68.48.9.72,1.79.91,2.68.18.89.25,1.79.26,2.68,0,.89-.08,1.78-.26,2.68Z"/>
      <path class="cls-3" d="M247.99,383.26c2.78,5.45,6.89,9.55,12.31,12.32l3.75-3.74,1.58-5.52s26.42-26.81,38.24-33.91c11.83-7.1,75.06-2.51,116.7-44.14,28.38-28.38-5.02-63.76-13.26-72.01-8.24-8.23-43.62-41.63-72-13.24-41.64,41.63-37.05,104.87-44.15,116.69-7.1,11.83-33.9,38.24-33.9,38.24l-5.52,1.58-3.75,3.74ZM330.18,267.41c-1.44,1.44-3.78,1.44-5.21,0-1.44-1.44-1.44-3.78,0-5.23,1.44-1.45,3.78-1.45,5.21,0,1.46,1.45,1.46,3.79,0,5.23ZM330.25,284.38c-1.44,1.44-3.78,1.44-5.23,0-1.45-1.44-1.45-3.78,0-5.21,1.45-1.45,3.79-1.45,5.23,0,1.44,1.44,1.44,3.78,0,5.21ZM330.33,301.39c-1.44,1.44-3.78,1.44-5.21,0-1.45-1.46-1.45-3.79,0-5.24s3.78-1.44,5.21,0c1.46,1.45,1.46,3.78,0,5.24ZM338.64,258.96c-1.45,1.44-3.79,1.44-5.23,0-1.44-1.44-1.44-3.78,0-5.23,1.44-1.45,3.78-1.45,5.23,0,1.45,1.45,1.45,3.79,0,5.23ZM338.7,275.93c-1.45,1.44-3.78,1.44-5.23,0-1.45-1.44-1.45-3.78,0-5.23,1.45-1.44,3.78-1.44,5.23,0,1.44,1.45,1.44,3.79,0,5.23ZM338.78,292.92c-1.44,1.45-3.78,1.45-5.21,0-1.44-1.45-1.44-3.78,0-5.23,1.44-1.44,3.78-1.44,5.21,0,1.45,1.45,1.45,3.78,0,5.23ZM355.55,242.06c-1.44,1.44-3.79,1.44-5.23,0-1.44-1.45-1.44-3.79,0-5.23,1.44-1.44,3.79-1.44,5.23,0,1.44,1.44,1.44,3.78,0,5.23ZM355.62,259.02c-1.46,1.45-3.8,1.45-5.24,0s-1.44-3.79,0-5.23,3.78-1.44,5.24,0c1.44,1.44,1.44,3.78,0,5.23ZM355.7,276.02c-1.45,1.44-3.79,1.44-5.23,0-1.44-1.44-1.44-3.78,0-5.21,1.44-1.46,3.78-1.46,5.23,0,1.44,1.44,1.44,3.78,0,5.21ZM355.79,293.02c-1.44,1.45-3.78,1.45-5.24,0-1.44-1.45-1.44-3.79,0-5.23,1.46-1.44,3.8-1.44,5.24,0,1.44,1.44,1.44,3.78,0,5.23ZM355.87,310.01c-1.44,1.44-3.78,1.44-5.21,0-1.45-1.44-1.45-3.78,0-5.23,1.44-1.45,3.78-1.45,5.21,0,1.44,1.45,1.44,3.79,0,5.23ZM364.07,250.58c-1.46,1.44-3.8,1.44-5.24,0-1.44-1.46-1.44-3.8,0-5.24,1.44-1.44,3.78-1.44,5.24,0,1.44,1.44,1.44,3.78,0,5.24ZM364.15,267.57c-1.44,1.44-3.79,1.44-5.23,0-1.44-1.44-1.44-3.78,0-5.23,1.44-1.45,3.79-1.45,5.23,0,1.44,1.45,1.44,3.79,0,5.23ZM364.24,284.55c-1.45,1.46-3.78,1.46-5.24,0-1.44-1.44-1.44-3.78,0-5.21,1.46-1.44,3.79-1.44,5.24,0,1.44,1.44,1.44,3.78,0,5.21ZM364.33,301.56c-1.44,1.44-3.78,1.44-5.21,0-1.45-1.44-1.45-3.78,0-5.24,1.44-1.44,3.78-1.44,5.21,0,1.44,1.46,1.44,3.8,0,5.24ZM364.42,318.55c-1.44,1.45-3.78,1.45-5.23,0s-1.44-3.78,0-5.21c1.45-1.44,3.79-1.44,5.23,0,1.45,1.44,1.45,3.78,0,5.21ZM372.51,242.12c-1.44,1.45-3.79,1.45-5.23,0-1.44-1.45-1.44-3.79,0-5.23s3.79-1.44,5.23,0c1.45,1.44,1.45,3.78,0,5.23ZM372.6,259.11c-1.44,1.44-3.78,1.44-5.23,0-1.45-1.44-1.45-3.79,0-5.23,1.45-1.45,3.79-1.45,5.23,0,1.44,1.44,1.44,3.79,0,5.23ZM372.7,276.1c-1.45,1.46-3.79,1.46-5.23,0-1.45-1.44-1.45-3.78,0-5.21,1.44-1.44,3.78-1.44,5.23,0,1.44,1.44,1.44,3.78,0,5.21ZM372.78,293.11c-1.44,1.44-3.78,1.44-5.21,0-1.44-1.44-1.44-3.79,0-5.23,1.44-1.45,3.78-1.45,5.21,0,1.45,1.44,1.45,3.79,0,5.23ZM372.88,310.1c-1.45,1.46-3.79,1.46-5.24,0-1.44-1.44-1.44-3.78,0-5.21,1.45-1.45,3.79-1.45,5.24,0,1.44,1.44,1.44,3.78,0,5.21ZM381.05,250.66c-1.44,1.44-3.78,1.44-5.23,0-1.45-1.44-1.45-3.79,0-5.23,1.45-1.44,3.79-1.44,5.23,0,1.44,1.44,1.44,3.79,0,5.23ZM381.14,267.65c-1.44,1.45-3.78,1.45-5.21,0-1.45-1.44-1.45-3.78,0-5.21,1.44-1.45,3.78-1.45,5.21,0,1.46,1.44,1.46,3.78,0,5.21ZM381.24,284.66c-1.45,1.44-3.79,1.44-5.23,0-1.44-1.45-1.44-3.79,0-5.23,1.44-1.45,3.78-1.45,5.23,0,1.44,1.44,1.44,3.78,0,5.23ZM381.33,301.64c-1.46,1.45-3.79,1.45-5.24,0-1.44-1.44-1.44-3.78,0-5.21,1.45-1.45,3.78-1.45,5.24,0,1.44,1.44,1.44,3.78,0,5.21ZM381.38,318.62c-1.44,1.44-3.78,1.44-5.21,0-1.44-1.45-1.44-3.78,0-5.23,1.44-1.45,3.78-1.45,5.21,0,1.45,1.45,1.45,3.78,0,5.23ZM389.51,242.21c-1.44,1.44-3.78,1.44-5.21,0-1.46-1.45-1.46-3.79,0-5.23,1.44-1.44,3.78-1.44,5.21,0,1.44,1.44,1.44,3.78,0,5.23ZM389.59,259.21c-1.44,1.44-3.78,1.44-5.21,0-1.44-1.45-1.44-3.79,0-5.24,1.44-1.44,3.78-1.44,5.21,0,1.46,1.45,1.46,3.79,0,5.24ZM389.69,276.21c-1.45,1.44-3.79,1.44-5.23,0-1.44-1.45-1.44-3.79,0-5.23,1.44-1.45,3.78-1.45,5.23,0s1.44,3.78,0,5.23ZM389.79,293.19c-1.45,1.45-3.8,1.45-5.24,0-1.44-1.44-1.44-3.78,0-5.23,1.44-1.44,3.79-1.44,5.24,0,1.44,1.45,1.44,3.79,0,5.23ZM389.85,310.17c-1.45,1.44-3.79,1.44-5.23,0-1.45-1.44-1.45-3.78,0-5.24,1.44-1.44,3.78-1.44,5.23,0,1.44,1.46,1.44,3.8,0,5.24ZM398.05,250.76c-1.45,1.44-3.79,1.44-5.23,0-1.44-1.45-1.44-3.78,0-5.24,1.44-1.44,3.78-1.44,5.23,0,1.45,1.46,1.45,3.79,0,5.24ZM398.15,267.74c-1.44,1.45-3.79,1.45-5.23,0-1.45-1.44-1.45-3.78,0-5.21,1.44-1.44,3.79-1.44,5.23,0,1.44,1.44,1.44,3.78,0,5.21ZM398.24,284.75c-1.45,1.44-3.79,1.44-5.24,0-1.44-1.45-1.44-3.8,0-5.24,1.45-1.44,3.79-1.44,5.24,0,1.44,1.44,1.44,3.79,0,5.24ZM398.3,301.71c-1.45,1.44-3.79,1.44-5.23,0-1.45-1.44-1.45-3.79,0-5.24,1.44-1.44,3.78-1.44,5.23,0,1.44,1.45,1.44,3.8,0,5.24ZM406.6,259.29c-1.44,1.45-3.78,1.45-5.23,0-1.45-1.44-1.45-3.78,0-5.21,1.45-1.45,3.79-1.45,5.23,0,1.44,1.44,1.44,3.78,0,5.21ZM406.68,276.3c-1.44,1.44-3.78,1.44-5.23,0-1.44-1.45-1.44-3.8,0-5.24,1.45-1.44,3.79-1.44,5.23,0,1.45,1.44,1.45,3.79,0,5.24ZM406.75,293.26c-1.44,1.44-3.79,1.44-5.24,0-1.44-1.44-1.44-3.79,0-5.24,1.45-1.44,3.8-1.44,5.24,0,1.44,1.45,1.44,3.8,0,5.24ZM342.31,338.42c9.67-2.97,19.1-6.6,28.37-10.57,4.62-2.01,9.21-4.07,13.72-6.3,4.5-2.24,9.07-4.41,13.28-7.05,4.24-2.61,8.28-5.56,11.92-8.94,3.64-3.36,6.99-7.07,9.55-11.3,2.62-4.08,3.65-9.04,3.46-13.98-.15-4.97-1.47-9.89-3.41-14.57,1.25,2.21,2.3,4.54,3.1,6.96.81,2.43,1.41,4.94,1.67,7.52.25,2.57.22,5.2-.27,7.79-.48,2.56-1.4,5.11-2.71,7.39-5.28,8.99-13.29,15.92-22,21.29-2.17,1.34-4.45,2.58-6.71,3.72-2.27,1.15-4.57,2.26-6.86,3.32-4.62,2.12-9.28,4.12-14.03,5.94-9.46,3.66-19.17,6.75-29.09,8.8ZM342.2,313.24c1.45-1.45,3.79-1.45,5.23,0,1.45,1.45,1.45,3.78,0,5.23-1.44,1.44-3.78,1.44-5.23,0-1.44-1.45-1.44-3.78,0-5.23ZM342.1,296.24c1.45-1.44,3.8-1.44,5.24,0,1.44,1.44,1.44,3.79,0,5.23-1.44,1.44-3.79,1.44-5.24,0-1.44-1.44-1.44-3.79,0-5.23ZM342.02,279.25c1.44-1.45,3.78-1.45,5.23,0,1.44,1.45,1.44,3.79,0,5.23-1.45,1.45-3.79,1.44-5.23,0-1.44-1.44-1.44-3.78,0-5.23ZM341.93,262.25c1.44-1.44,3.78-1.44,5.23,0,1.45,1.44,1.45,3.79,0,5.23-1.45,1.45-3.79,1.45-5.23,0-1.44-1.44-1.44-3.79,0-5.23ZM341.87,245.29c1.44-1.44,3.78-1.44,5.23,0,1.44,1.44,1.44,3.79,0,5.23-1.45,1.44-3.79,1.44-5.23,0-1.44-1.44-1.44-3.79,0-5.23ZM338.89,309.92c-1.45,1.44-3.79,1.44-5.23,0-1.45-1.44-1.45-3.78,0-5.23,1.44-1.44,3.78-1.44,5.23,0,1.44,1.45,1.44,3.79,0,5.23ZM301.08,334.79c.12-5.31,3.07-30.78,10-30.48s6.32,12.15,11.19,17.01c4.86,4.86,16.69,4.27,17,11.18.3,6.92-25.16,9.88-30.46,10.01-5.25.14-6.27-1.45-6.27-1.45,0,0-1.59-1.03-1.45-6.27ZM289.56,351.83c0-1.22.08-2.43.26-3.65.19-1.22.42-2.43.91-3.65.49,1.22.72,2.43.91,3.65.18,1.22.26,2.43.26,3.65s-.08,2.43-.25,3.65c-.19,1.22-.43,2.43-.92,3.65-.49-1.22-.74-2.43-.92-3.65-.16-1.22-.25-2.43-.25-3.65ZM281.86,359.68c0-.94.08-1.88.25-2.82.19-.95.43-1.88.92-2.83.48.95.72,1.88.91,2.83.18.94.26,1.88.26,2.82s-.08,1.88-.26,2.83c-.18.95-.42,1.88-.91,2.83-.49-.95-.74-1.88-.92-2.83-.18-.95-.25-1.88-.25-2.83ZM274.17,368.02c0-.92.08-1.84.25-2.76.19-.92.43-1.85.92-2.77.48.92.72,1.85.91,2.77.18.92.25,1.84.26,2.76,0,.92-.08,1.85-.26,2.77-.19.92-.42,1.85-.91,2.77-.49-.92-.74-1.85-.92-2.77-.18-.92-.26-1.85-.25-2.77ZM266.47,376.02c.01-.89.08-1.79.26-2.68.19-.89.43-1.78.91-2.68.49.9.74,1.79.92,2.68.16.89.25,1.79.25,2.68.01.89-.07,1.78-.25,2.68-.19.89-.43,1.78-.92,2.68-.48-.9-.72-1.79-.91-2.68-.18-.9-.26-1.79-.26-2.68Z"/>
    </g>
    <g class="cls-5">
      <path class="cls-4" d="M268.13,221.51c-1.03,1.11-2.24,1.96-3.55,2.62-.02-.28-.02-.56-.02-.84,0-6.37,2.28-12.22,6.07-16.75-.06,2.24.14,4.55.16,6.75.02,3.04-.54,5.94-2.65,8.23Z"/>
      <path class="cls-4" d="M281,235.64c.78,5.77,4.82,10.63,9.91,13.27.36.19.72.36,1.09.51-.42.02-.84.04-1.27.04-13.34,0-24.34-9.97-25.95-22.87h0c3.97-1.84,7.25-4.95,8.07-9.54.71-4-.62-8.99.29-13.14,4.64-4.22,10.83-6.8,17.59-6.8,9.71,0,18.19,5.3,22.7,13.15-2.49,2.09-5.32,3.78-8.37,4.91-5.68,2.1-12.12,2.2-17.36,5.47-5.09,3.18-7.49,9.13-6.7,15Z"/>
      <path class="cls-4" d="M316.9,223.28c0,12.2-8.34,22.44-19.64,25.34-1.64-.29-3.24-.81-4.77-1.54-4.94-2.41-8.93-7.07-9.28-12.72-.37-6.01,2.97-10.97,8.53-13.13,5.23-2.05,10.93-2.37,16.09-4.7,2.4-1.09,4.65-2.49,6.69-4.15,1.53,3.32,2.38,7,2.38,10.9Z"/>
    </g>
  </g>
</svg>