<?xml version="1.0" encoding="UTF-8"?>
<svg id="Ebene_1" data-name="Ebene 1" xmlns="http://www.w3.org/2000/svg" viewBox="0 0 584.76 587.04">
  <defs>
    <style>
      .cls-1 {
        fill: #002c1e;
      }

      .cls-1, .cls-2 {
        stroke: #fff;
        stroke-miterlimit: 10;
        stroke-width: 10px;
      }

      .cls-3 {
        fill: #fff;
      }

      .cls-4 {
        fill: #ffed00;
      }

      .cls-2 {
        fill: #1d1d1b;
      }

      .cls-5 {
        opacity: .26;
      }
    </style>
  </defs>
  <circle class="cls-1" cx="290.65" cy="294.24" r="283.48"/>
  <circle class="cls-2" cx="290.65" cy="294.24" r="180"/>
  <g>
    <path class="cls-3" d="M52.54,221.85c-.5,4.7-.23,5.18,4.64,6.21l22.49,4.73c4.87,1.02,5.33.63,6.69-3.83l2.17.46-3.83,18.21-2.17-.46c.39-4.78.29-5.17-4.58-6.2l-11.04-2.32-3.35,15.92,11.04,2.32c4.87,1.02,5.28.56,6.68-3.77l2.17.46-3.82,18.15-2.17-.46c.45-4.46.29-5.17-4.58-6.2l-22.49-4.73c-4.87-1.02-5.46-.59-6.75,3.81l-2.17-.46,3.82-18.15,2.17.46c-.53,4.57-.22,5.12,4.65,6.15l8.4,1.77,3.35-15.92-8.4-1.77c-4.87-1.02-5.35-.51-6.75,3.81l-2.17-.46,3.83-18.21,2.17.46Z"/>
    <path class="cls-3" d="M93.61,191.98c1.37.91,7.06,5.16,8.4,6.32l-12.23,28.77-1.99-.84c1.65-5.26,1.51-5.71-3.13-7.68l-21.09-8.96c-4.69-1.99-5.31-1.47-7.24,2.16l-2.04-.87,7.66-18.02c2.47-5.82,3.24-7.78,3.52-8.58,1.02.37,5.66,2.01,9.18,3.25l-.64,2.28c-2.09-.3-4.75-.32-6.15.2-1.53.53-2.17,1.11-3.37,3.94l-1.53,3.6c-.9,2.11-.88,2.38,1,3.17l11.54,4.9,2.31-5.43c1.32-3.1.73-4.01-2.84-6.51l.92-2.16,12.31,5.23-.92,2.16c-4.46-.85-5.31-.69-6.68,2.53l-2.29,5.38,9.5,4.04c3.81,1.62,5.02,2,6.53-1.41l1.67-3.94c1.32-3.1,1.29-4.1.31-5.95-1.01-2.07-2.58-4.04-4.08-5.73l1.37-1.84Z"/>
    <path class="cls-3" d="M124.79,162.61c-.2.3-.59.91-1.03,1.48-4.46,6.23-7.03,7.22-10.12,7.37-4.08.23-8.1-.29-12.24-.52-1.85-.12-2.61.39-3.66,2.01l-.71.98,7.36,4.76c4.08,2.64,4.76,2.36,7.67-1.14l1.86,1.21-10.01,15.48-1.86-1.21c2.08-4.1,1.97-4.82-2.11-7.46l-19.3-12.48c-3.98-2.57-4.86-2.43-7.62,1.17l-1.86-1.21,9.49-14.67c2.91-4.5,5.08-6.76,7.84-7.92,2.67-1.14,5.77-1.08,8.89.94,4.48,2.9,4.92,7.41,4.07,11.6,2,.22,6.55.36,9.85.34,3.92.02,6-.21,7.73-.46,2.06-.32,2.83-.61,4.28-1.75l1.48,1.46ZM95.85,171.23c1.41-2.17,2.13-4.07,1.9-5.8-.33-2.58-1.79-4.53-4.36-6.19-5.34-3.45-9.25-1.61-11.08,1.23-.88,1.37-1.11,2.15-1,2.65.07.55.61,1.04,1.62,1.69l12.04,7.79.88-1.37Z"/>
    <path class="cls-3" d="M147.78,138.7l-1.55-1.59c2.93-3.55,2.86-4.06-.92-7.92l-16.42-16.67c4.12,10.41,8.7,21.88,12.74,32.2l-1.42,1.39c-9.64-4.25-20.51-9.23-30.95-13.69,12.63,14.01,15.23,16.66,16.74,18.21,2.31,2.27,3.76,2.03,7.28-.83l1.55,1.59-10.67,10.46-1.55-1.59c2.24-2.62,2.9-4.19.72-7.09-1.09-1.45-3.31-4.07-16.18-19.18-1.89-2.18-3.32-3.05-7.36.24l-1.55-1.59,9.29-9.11,26.82,10.77-10.17-27.08,9.08-8.9,1.55,1.59c-3.11,3.72-3.16,4.44.29,7.78l16.09,15.74c3.82,3.82,4.16,3.82,8.11.88l1.55,1.59-13.08,12.82Z"/>
    <path class="cls-3" d="M180.66,114.01l-1.18-1.88c2.92-2.48,2.57-3.04.48-4.77-1.47-1.2-3.72-2.97-5.77-4.52l-9.93,6.27c.43,1.93.93,4.31,1.42,6.2.95,3.87,2.42,3.51,6.67,1.32l1.18,1.88-12.58,7.94-1.18-1.88c2.95-2.43,3.48-3.4,2.53-8.76l-5.95-32.92,2.16-2c8.83,6.77,17.99,13.62,26.64,20.01,4.86,3.53,5.54,3.6,9.11,1.91l1.18,1.88-14.77,9.32ZM160.88,92.58c.83,4.59,1.54,8.89,2.61,13.39l8.1-5.11-10.71-8.29Z"/>
    <path class="cls-3" d="M221.71,55.1c-3.25,1.77-4.04,2.91-3.24,5.5.67,2.25,1.24,4.22,3.12,9.09l8.61,22.28-3.15,1.22-34.25-18.94,4.89,12.65c1.88,4.87,2.84,7.01,3.63,8.57,1.18,2.38,2.85,3.21,7.1,1.83l.8,2.07-13.94,5.38-.8-2.07c3.09-1.52,4.18-2.9,3.5-5.66-.55-2.1-1.22-4.16-3.1-9.03l-5.12-13.26c-.71-1.85-1.3-3.04-2.93-4.08-1.55-1.01-2.96-.66-5.41.03l-.8-2.07,10.96-4.23,30.99,16.53-3.89-10.07c-1.88-4.87-2.65-6.69-3.62-8.7-1.1-2.34-2.45-3.17-7.22-1.65l-.8-2.07,13.88-5.36.8,2.07Z"/>
    <path class="cls-3" d="M251.63,46.33c11.01-1.74,21.25,4.84,23.1,16.52,2,12.62-5.79,21.99-17.04,23.77-11.9,1.88-21.89-5.41-23.7-16.85-1.6-10.13,4.07-21.3,17.64-23.44ZM251.15,49.08c-6.07.96-9.59,7.59-7.93,18.08,1.58,10.02,6.93,17.98,14.96,16.71,5.65-.89,9.19-7.04,7.48-17.89-1.86-11.73-7.6-17.99-14.5-16.9Z"/>
    <path class="cls-3" d="M304.92,54.29c-1.13-3.86-2.73-8.28-8.27-8.39-3.49-.07-5.83,2.34-5.9,5.7-.07,3.3,2.12,5.32,7.37,8.07,6.38,3.31,10.41,6.51,10.29,12.45-.14,7.08-6.15,12.12-14.76,11.95-3.85-.08-7.27-1.17-10.08-2.06-.33-1.39-1.23-7.65-1.6-10.47l2.36-.49c1.13,3.8,4.37,10.41,10.27,10.53,3.67.07,5.95-2.16,6.02-6,.07-3.48-2.06-5.56-7.06-8.36-6.2-3.48-10.23-6.57-10.11-12.8.13-6.3,5.17-11.18,14.2-11,4.16.08,7.27,1.05,8.59,1.25.2,2.22.56,5.35.96,9.14l-2.3.49Z"/>
    <path class="cls-3" d="M353.07,52.01c7.45,1.98,12.51,5.01,15.3,9.48,2.24,3.52,3.43,8.18,1.87,14.04-1.78,6.67-5.93,11.03-11.31,13.2-5.17,2.1-11.14,2.25-17.77.48l-16.01-4.26.57-2.15c4.52.83,5.18.45,6.46-4.36l5.87-22.03c1.3-4.87.78-5.5-3.44-7l.57-2.15,17.87,4.76ZM340.39,80.17c-1.1,4.12-.42,5.79,3.83,6.92,7.86,2.09,13.85-2.15,16.77-13.11,1.47-5.51,1.24-10.72-.78-13.93-1.8-3.09-4.61-4.7-8.51-5.74-2.15-.57-3.27-.37-3.71-.12-.66.38-1.04,1.34-1.49,3.02l-6.12,22.96Z"/>
    <path class="cls-3" d="M402.24,102.34c-.98,1.33-5.5,6.81-6.71,8.08l-28.15-13.6.94-1.94c5.17,1.9,5.63,1.78,7.82-2.75l9.97-20.64c2.22-4.59,1.72-5.23-1.81-7.34l.97-2,17.63,8.51c5.7,2.75,7.62,3.61,8.41,3.93-.42,1-2.28,5.56-3.68,9.02l-2.25-.75c.4-2.07.55-4.73.09-6.15-.46-1.55-1-2.22-3.77-3.55l-3.53-1.7c-2.06-1-2.33-.99-3.22.84l-5.45,11.29,5.32,2.57c3.04,1.47,3.97.92,6.64-2.52l2.12,1.02-5.82,12.05-2.12-1.02c1.06-4.42.94-5.28-2.2-6.79l-5.26-2.54-4.49,9.29c-1.8,3.73-2.24,4.92,1.1,6.59l3.85,1.86c3.04,1.47,4.03,1.48,5.93.6,2.11-.91,4.16-2.39,5.92-3.8l1.77,1.46Z"/>
    <path class="cls-3" d="M447.97,99.82c3.71,2.98,6,5.9,6.91,8.71,1.11,3.43.62,6.73-1.97,9.96-5.45,6.78-13.52,5-18.58,1.01-.47-.38-1.04-.91-1.33-1.23l-2.16-2.89-5.11,6.36c-3.16,3.93-2.98,4.38.81,8.04l-1.39,1.73-14.94-11.99,1.39-1.73c3.86,2.41,4.44,2.64,7.6-1.29l14.35-17.87c3.16-3.93,3.02-4.73-.31-7.79l1.39-1.73,13.34,10.71ZM432.41,113.42c.34.73,1.13,1.67,2.11,2.47,2.16,1.73,6.7,3.3,11.66-2.87,4.21-5.24,2.73-9.27-.32-11.72-.99-.79-1.74-1.01-2.21-1-.55.02-1.02.41-1.59,1.11l-9.65,12.02Z"/>
    <path class="cls-3" d="M448.21,153.74l1.64-1.5c2.96,2.43,3.45,1.99,4.78-.38.92-1.66,2.26-4.2,3.42-6.48l-7.94-8.66c-1.82.77-4.07,1.69-5.85,2.5-3.64,1.62-3.02,3.01-.11,6.8l-1.64,1.5-10.06-10.96,1.64-1.5c2.92,2.47,3.97,2.82,9.07.92l31.33-11.74,2.35,1.77c-5.09,9.9-10.19,20.14-14.93,29.79-2.61,5.41-2.55,6.1-.26,9.31l-1.64,1.5-11.81-12.87ZM465.77,130.45c-4.36,1.63-8.47,3.11-12.71,4.96l6.47,7.06,6.24-12.02Z"/>
    <path class="cls-3" d="M503.2,162.39c4.01,6.58,5.58,12.26,4.51,17.43-.81,4.09-3.17,8.28-8.34,11.44-5.89,3.59-11.9,3.87-17.29,1.72-5.19-2.06-9.6-6.07-13.18-11.93l-8.62-14.15,1.9-1.16c2.69,3.72,3.43,3.9,7.69,1.31l19.46-11.87c4.3-2.62,4.37-3.44,2.35-7.43l1.9-1.16,9.63,15.79ZM474.57,173.99c-3.64,2.22-4.3,3.89-2.01,7.65,4.23,6.94,11.49,8.02,21.18,2.12,4.87-2.97,8.3-6.9,9.06-10.61.83-3.47-.08-6.58-2.18-10.03-1.16-1.9-2.1-2.53-2.6-2.65-.74-.18-1.68.25-3.16,1.15l-20.29,12.37Z"/>
    <path class="cls-3" d="M503.99,232.77c-1.62.29-8.68,1.12-10.44,1.21l-10.96-29.28,2.02-.76c2.43,4.94,2.83,5.18,7.56,3.41l21.47-8.03c4.78-1.79,4.86-2.59,3.76-6.55l2.08-.78,6.86,18.33c2.22,5.92,3.01,7.88,3.36,8.65-.99.43-5.49,2.44-8.89,3.97l-1.1-2.09c1.72-1.22,3.67-3.04,4.32-4.38.74-1.44.81-2.3-.27-5.17l-1.37-3.67c-.8-2.14-1-2.33-2.91-1.61l-11.75,4.39,2.07,5.53c1.18,3.16,2.24,3.41,6.54,2.76l.82,2.2-12.53,4.69-.82-2.2c3.82-2.46,4.33-3.16,3.1-6.43l-2.05-5.47-9.67,3.62c-3.88,1.45-5.02,2.01-3.76,5.52l1.5,4.01c1.18,3.16,1.89,3.86,3.88,4.53,2.16.8,4.66,1.15,6.91,1.34l.28,2.28Z"/>
    <path class="cls-3" d="M511.34,267.61c-2.62.02-9.19-.4-10.88-.62l-5.76-29.32,2.18-.43c1.38,5.13,1.88,5.52,6.83,4.55l22.43-4.41c4.95-.97,5.3-1.66,4.78-6.16l2.18-.43,3.62,18.44-2.18.43c-1.32-4.53-1.85-5.04-6.79-4.07l-22.84,4.49c-3.24.64-4.69,1.04-4.11,4.31-.04.13.5,2.85.54,3.09.66,3.37,1.54,4.12,3.41,5.22,1.4.89,4.23,1.93,6.85,2.52l-.27,2.39Z"/>
  </g>
  <g>
    <path class="cls-3" d="M104.5,417.64c2.08-1.94,3.41-4.21,3.84-5.15.56-1.56.74-2.22-1.01-5.31l-1.9-3.35-24.53,13.9c-4.38,2.48-4.4,3.19-2.12,8.06l-1.93,1.09-9.86-17.4,1.93-1.09c2.89,4.25,3.47,4.54,7.85,2.06l24.53-13.9-1.81-3.2c-1.66-2.94-2.61-3.51-4.42-3.79-1.41-.17-3.7.16-6.18.66l-1.13-1.99c4.02-1.79,8.3-3.73,10.86-5.05l.89,1.57c-.75,1.47-.5,2.15.39,3.73l11.88,20.97c.8,1.42,1.53,1.97,3.03,2.3l.86,1.52c-2.16,1.29-6.64,4.11-9.88,6.29l-1.29-1.9Z"/>
    <path class="cls-3" d="M141.09,449.6c-2.77-2.7-4.3-2.74-6.11-1.53-1.49,1.03-3.12,2.26-6.32,4.98l-5.99,5.09c-3.93,3.34-8.45,6.08-13.42,5.8-3.99-.24-7.72-2.68-10.49-5.94-2.58-3.03-4.51-6.6-4.61-10.23-.25-4.37,1.44-8.03,6.56-12.38l11.56-9.84c4.21-3.58,4.17-4.26,1.53-8.02l1.69-1.44,12.06,14.17-1.69,1.44c-3.25-3.17-3.92-3.31-8.12.27l-12.16,10.34c-5.12,4.35-6.35,9.75-2.18,14.66,4.64,5.46,10.7,4.42,17.55-1.41l5.71-4.86c3.15-2.68,4.68-4.22,5.97-5.48,1.95-1.97,1.31-3.65-1.24-7.01l1.69-1.44,9.68,11.38-1.69,1.44Z"/>
    <path class="cls-3" d="M174.68,476.13c-3.18-1.9-4.56-2-6.38,0-1.59,1.72-3,3.21-6.24,7.3l-14.82,18.72-2.65-2.09-1.07-39.11-8.42,10.63c-3.24,4.09-4.6,6-5.54,7.48-1.45,2.22-1.31,4.09,2.03,7.04l-1.38,1.74-11.71-9.27,1.38-1.74c2.88,1.9,4.62,2.12,6.65.14,1.53-1.54,2.96-3.16,6.21-7.26l8.83-11.15c1.23-1.55,1.96-2.66,2.03-4.6.08-1.85-.94-2.89-2.77-4.65l1.38-1.74,9.21,7.29,1.49,35.08,6.7-8.47c3.24-4.09,4.42-5.68,5.66-7.54,1.46-2.13,1.49-3.72-2.25-7.06l1.38-1.74,11.67,9.23-1.38,1.74Z"/>
    <path class="cls-3" d="M158.71,508.44l1.09-1.93c4.19,1.89,4.84,1.85,7.33-2.54l11.28-19.88c2.49-4.38,2.2-5.1-1.55-7.64l1.1-1.93,16.19,9.18-1.09,1.93c-4.14-1.86-4.87-1.8-7.36,2.59l-11.28,19.88c-2.46,4.33-2.16,4.91,1.58,7.59l-1.1,1.93-16.19-9.18Z"/>
    <path class="cls-3" d="M216.87,524.56c-.88,1.39-5.01,7.17-6.14,8.53l-29.02-11.63.8-2c5.29,1.54,5.74,1.39,7.61-3.28l8.53-21.28c1.9-4.73,1.36-5.34-2.31-7.2l.83-2.06,18.17,7.28c5.87,2.35,7.85,3.08,8.65,3.34-.35,1.03-1.9,5.7-3.06,9.25l-2.29-.6c.26-2.1.22-4.76-.33-6.14-.56-1.52-1.15-2.14-4-3.29l-3.63-1.46c-2.12-.85-2.39-.83-3.15,1.06l-4.67,11.64,5.48,2.2c3.13,1.25,4.03.64,6.45-2.97l2.18.88-4.98,12.42-2.18-.88c.76-4.48.58-5.33-2.67-6.63l-5.42-2.17-3.84,9.58c-1.54,3.84-1.9,5.06,1.55,6.5l3.97,1.59c3.13,1.25,4.13,1.2,5.96.19,2.04-1.06,3.99-2.67,5.64-4.2l1.87,1.33Z"/>
    <path class="cls-3" d="M257.53,544.66c-.35-.08-1.06-.23-1.75-.44-7.4-1.96-9.24-4.02-10.47-6.86-1.66-3.73-2.6-7.68-3.84-11.63-.54-1.77-1.29-2.3-3.17-2.71l-1.17-.31-1.85,8.56c-1.02,4.75-.52,5.29,3.78,6.77l-.47,2.17-18.02-3.88.47-2.17c4.58.5,5.21.14,6.23-4.61l4.84-22.46c1-4.63.55-5.41-3.79-6.71l.47-2.17,17.08,3.68c5.24,1.13,8.12,2.36,10.18,4.53,2.01,2.09,3.05,5.01,2.26,8.65-1.13,5.22-5.19,7.23-9.41,7.92.5,1.95,1.98,6.26,3.16,9.34,1.37,3.67,2.32,5.53,3.16,7.07,1.03,1.82,1.57,2.43,3.15,3.38l-.84,1.91ZM239.23,520.64c2.53.55,4.56.55,6.1-.28,2.3-1.22,3.6-3.27,4.25-6.27,1.34-6.22-1.77-9.22-5.07-9.93-1.59-.34-2.41-.27-2.83,0-.49.26-.76.94-1.01,2.11l-3.02,14.02,1.59.34Z"/>
    <path class="cls-3" d="M332.31,506.87c-4.3.78-5.03,1.72-6.45,6.72-1.31,4.7-5.04,19.14-8.17,31.57l-3.37.18c-3.54-8.46-7.45-17.14-11.38-25.93-2.63,9.22-5.16,18.13-7.51,26.97l-3.49.19c-2.87-8.31-7.4-20.5-11.35-30.92-1.75-4.47-2.71-5.44-6.4-5.6l-.12-2.22,18.17-1,.12,2.22c-4.49.67-4.56,1.57-3.55,4.64,2.36,6.78,4.85,13.67,7.19,20.1,2.61-8.62,5-17.82,7.26-27.26l3.19-.17c3.81,8.98,7.73,17.72,11.51,26.29,1.87-6.59,4.21-16.75,4.87-20.21.65-3.58-.01-4.63-5.21-4.76l-.12-2.22,14.68-.8.12,2.22Z"/>
    <path class="cls-3" d="M371.51,494.25c-3.6,1.42-4.26,2.81-3.89,4.95.33,1.78.79,3.77,1.96,7.8l2.2,7.55c1.45,4.95,2.1,10.2-.19,14.62-1.85,3.54-5.61,5.95-9.71,7.14-3.82,1.11-7.87,1.42-11.23.02-4.09-1.56-6.74-4.6-8.62-11.05l-4.25-14.57c-1.55-5.3-2.18-5.55-6.7-4.67l-.62-2.13,17.87-5.21.62,2.13c-4.22,1.67-4.62,2.22-3.08,7.52l4.47,15.32c1.88,6.45,6.3,9.79,12.49,7.98,6.88-2.01,8.41-7.95,5.89-16.59l-2.1-7.2c-1.16-3.97-1.94-6-2.56-7.69-1-2.58-2.79-2.69-6.91-1.74l-.62-2.13,14.34-4.18.62,2.13Z"/>
    <path class="cls-3" d="M430.36,459.79c-3.38,2.78-3.56,3.96-2.35,9.02,1.15,4.74,4.94,19.17,8.28,31.54l-2.85,1.8c-7.22-5.66-14.87-11.32-22.59-17.09,2.2,9.33,4.34,18.34,6.61,27.21l-2.95,1.87c-6.56-5.86-16.46-14.29-25-21.46-3.71-3.05-5.02-3.42-8.32-1.76l-1.19-1.88,15.37-9.73,1.19,1.88c-3.59,2.77-3.21,3.6-.83,5.78,5.37,4.77,10.91,9.57,16.09,14.03-1.93-8.79-4.34-17.99-6.97-27.33l2.7-1.71c7.71,5.98,15.39,11.7,22.88,17.33-1.58-6.67-4.5-16.68-5.62-20.02-1.18-3.44-2.27-4.03-6.87-1.62l-1.19-1.88,12.42-7.86,1.19,1.88Z"/>
    <path class="cls-3" d="M453.84,485.65l-1.5-1.63c3.09-3.41,3.24-4.04-.17-7.75l-15.47-16.83c-3.41-3.71-4.18-3.66-7.75-.87l-1.5-1.63,13.7-12.59,1.5,1.63c-3.04,3.37-3.2,4.08.21,7.79l15.47,16.83c3.37,3.67,4.01,3.56,7.71.82l1.5,1.63-13.7,12.59Z"/>
    <path class="cls-3" d="M487.03,435.29c1.05,1.27,5.28,6.98,6.22,8.47l-20,24.02-1.66-1.38c3.09-4.56,3.09-5.03-.78-8.25l-17.61-14.67c-3.92-3.26-4.66-2.94-7.56-.02l-1.71-1.42,12.53-15.04c4.05-4.86,5.35-6.52,5.84-7.2.87.64,4.84,3.56,7.86,5.76l-1.27,2c-1.92-.89-4.46-1.68-5.95-1.58-1.62.07-2.39.44-4.36,2.8l-2.5,3.01c-1.46,1.76-1.53,2.02.04,3.33l9.64,8.02,3.78-4.54c2.16-2.59,1.85-3.63-.84-7.05l1.5-1.8,10.28,8.56-1.5,1.8c-4.03-2.1-4.89-2.19-7.13.49l-3.74,4.49,7.93,6.6c3.18,2.65,4.23,3.36,6.66.53l2.74-3.29c2.16-2.59,2.41-3.55,2.02-5.61-.37-2.27-1.31-4.62-2.26-6.66l1.84-1.37Z"/>
    <path class="cls-3" d="M488.34,380.64c-1.39,3.43-1.27,4.82.99,6.3,1.95,1.31,3.64,2.47,8.18,5.04l20.79,11.75-1.66,2.94-38.48,7.11,11.81,6.67c4.54,2.57,6.64,3.61,8.25,4.31,2.42,1.09,4.24.67,6.64-3.1l1.93,1.09-7.35,13.01-1.93-1.09c1.43-3.14,1.38-4.89-.89-6.59-1.76-1.27-3.58-2.44-8.13-5.01l-12.38-6.99c-1.72-.97-2.93-1.52-4.85-1.29-1.84.21-2.71,1.38-4.16,3.46l-1.93-1.09,5.78-10.23,34.43-6.91-9.4-5.31c-4.54-2.57-6.3-3.49-8.32-4.42-2.33-1.11-3.91-.89-6.63,3.31l-1.93-1.09,7.32-12.95,1.93,1.09Z"/>
  </g>
  <g>
    <path class="cls-3" d="M517.6,313.57c-1.21.86-2.48,1.65-3.71,2.41-1.37.84-2.78,1.72-4.07,2.67-2.8,2.07-4.63,4.28-5.43,6.58-.72,2.06-.82,4.72-.27,7.29.68,3.17,2.3,6.11,4.7,8.51,2.9,2.9,6.18,4.1,8.42,4.6,2.64.59,5.4.53,7.39-.16,2.3-.8,4.52-2.63,6.58-5.43.96-1.3,1.83-2.71,2.67-4.07.76-1.23,1.54-2.5,2.41-3.71,1.86-2.62,4.07-4.98,6.6-7.03-1.08-4.14-3.24-8.05-6.48-11.29-3.43-3.43-7.61-5.65-12.02-6.66-1.99,2.4-4.27,4.52-6.79,6.3Z"/>
    <path class="cls-3" d="M543.08,326.01c.02.1.05.2.07.31-.02-.1-.04-.21-.07-.31Z"/>
    <path class="cls-3" d="M543.21,326.61c.02.1.04.21.06.31-.02-.1-.04-.21-.06-.31Z"/>
    <path class="cls-3" d="M543.32,327.21c.02.11.04.21.05.32-.02-.11-.04-.21-.05-.32Z"/>
    <path class="cls-3" d="M542.93,325.4c.03.11.05.21.08.32-.03-.11-.05-.21-.08-.32Z"/>
    <path class="cls-3" d="M522.44,306.9c-.13-.02-.25-.04-.38-.05.13.02.25.03.38.05Z"/>
    <path class="cls-3" d="M543.4,327.66c-2.01,1.75-3.79,3.71-5.32,5.86-.82,1.16-1.59,2.4-2.33,3.6-.87,1.4-1.76,2.85-2.77,4.22-2.34,3.16-4.9,5.25-7.63,6.2-2.39.83-5.52.92-8.59.23-2.53-.56-6.22-1.92-9.5-5.19-2.7-2.7-4.53-6.02-5.3-9.61-.63-2.95-.51-6.04.34-8.47.95-2.73,3.04-5.3,6.2-7.63,1.37-1.01,2.82-1.91,4.22-2.77,1.2-.74,2.44-1.51,3.6-2.33,2.02-1.43,3.87-3.09,5.54-4.95-7.36-.91-15.04,1.46-20.69,7.11-9.73,9.73-9.73,25.5,0,35.23,9.73,9.73,25.5,9.73,35.23,0,5.85-5.85,8.18-13.89,6.99-21.49Z"/>
    <path class="cls-3" d="M524.26,307.24c-.11-.02-.21-.05-.32-.07.11.02.21.04.32.07Z"/>
    <path class="cls-3" d="M523.05,307c-.12-.02-.24-.04-.35-.06.12.02.24.04.35.06Z"/>
    <path class="cls-3" d="M523.66,307.11c-.11-.02-.22-.04-.33-.06.11.02.22.04.33.06Z"/>
  </g>
  <g>
    <path class="cls-3" d="M60.02,311.33c-1.21.86-2.48,1.65-3.71,2.41-1.37.84-2.78,1.72-4.07,2.67-2.8,2.07-4.63,4.28-5.43,6.58-.72,2.06-.82,4.72-.27,7.29.68,3.17,2.3,6.11,4.7,8.51,2.9,2.9,6.18,4.1,8.42,4.6,2.64.59,5.4.53,7.39-.16,2.3-.8,4.52-2.63,6.58-5.43.96-1.3,1.83-2.71,2.67-4.07.76-1.23,1.54-2.5,2.41-3.71,1.86-2.62,4.07-4.98,6.6-7.03-1.08-4.14-3.24-8.05-6.48-11.29-3.43-3.43-7.61-5.65-12.02-6.66-1.99,2.4-4.27,4.52-6.79,6.3Z"/>
    <path class="cls-3" d="M85.49,323.77c.02.1.05.2.07.31-.02-.1-.04-.21-.07-.31Z"/>
    <path class="cls-3" d="M85.62,324.37c.02.1.04.21.06.31-.02-.1-.04-.21-.06-.31Z"/>
    <path class="cls-3" d="M85.73,324.97c.02.11.04.21.05.32-.02-.11-.04-.21-.05-.32Z"/>
    <path class="cls-3" d="M85.35,323.16c.03.11.05.21.08.32-.03-.11-.05-.21-.08-.32Z"/>
    <path class="cls-3" d="M64.85,304.66c-.13-.02-.25-.04-.38-.05.13.02.25.03.38.05Z"/>
    <path class="cls-3" d="M85.81,325.43c-2.01,1.75-3.79,3.71-5.32,5.86-.82,1.16-1.59,2.4-2.33,3.6-.87,1.4-1.76,2.85-2.77,4.22-2.34,3.16-4.9,5.25-7.63,6.2-2.39.83-5.52.92-8.59.23-2.53-.56-6.22-1.92-9.5-5.19-2.7-2.7-4.53-6.02-5.3-9.61-.63-2.95-.51-6.04.34-8.47.95-2.73,3.04-5.3,6.2-7.63,1.37-1.01,2.82-1.91,4.22-2.77,1.2-.74,2.44-1.51,3.6-2.33,2.02-1.43,3.87-3.09,5.54-4.95-7.36-.91-15.04,1.46-20.69,7.11-9.73,9.73-9.73,25.5,0,35.23,9.73,9.73,25.5,9.73,35.23,0,5.85-5.85,8.18-13.89,6.99-21.49Z"/>
    <path class="cls-3" d="M66.67,305c-.11-.02-.21-.05-.32-.07.11.02.21.04.32.07Z"/>
    <path class="cls-3" d="M65.46,304.76c-.12-.02-.24-.04-.35-.06.12.02.24.04.35.06Z"/>
    <path class="cls-3" d="M66.07,304.88c-.11-.02-.22-.04-.33-.06.11.02.22.04.33.06Z"/>
  </g>
  <g>
    <g>
      <path class="cls-3" d="M327.98,377.42l-5.52-1.58s-26.81-26.41-33.9-38.24c-7.11-11.82-2.51-75.06-44.15-116.69-28.38-28.38-63.76,5.01-72,13.24-8.24,8.25-41.64,43.63-13.26,72.01,41.64,41.63,104.87,37.05,116.7,44.14,11.82,7.11,38.24,33.91,38.24,33.91l1.58,5.52,3.75,3.74c5.42-2.77,9.53-6.87,12.31-12.32l-3.75-3.74ZM249.54,260.09c1.44-1.45,3.78-1.45,5.21,0,1.44,1.45,1.44,3.79,0,5.23-1.44,1.44-3.78,1.44-5.21,0-1.46-1.44-1.46-3.78,0-5.23ZM249.47,277.06c1.44-1.45,3.78-1.45,5.23,0,1.45,1.44,1.45,3.78,0,5.21-1.45,1.44-3.79,1.44-5.23,0-1.44-1.44-1.44-3.78,0-5.21ZM249.39,294.05c1.44-1.44,3.78-1.44,5.21,0,1.45,1.45,1.45,3.78,0,5.24-1.44,1.44-3.78,1.44-5.21,0-1.46-1.46-1.46-3.79,0-5.24ZM241.08,251.64c1.45-1.45,3.79-1.45,5.23,0,1.44,1.45,1.44,3.79,0,5.23-1.44,1.44-3.78,1.44-5.23,0-1.45-1.44-1.45-3.78,0-5.23ZM241.02,268.6c1.45-1.44,3.78-1.44,5.23,0,1.45,1.45,1.45,3.79,0,5.23-1.45,1.44-3.78,1.44-5.23,0-1.44-1.44-1.44-3.78,0-5.23ZM240.94,285.6c1.44-1.44,3.78-1.44,5.21,0,1.44,1.45,1.44,3.78,0,5.23s-3.78,1.45-5.21,0c-1.45-1.45-1.45-3.78,0-5.23ZM224.17,234.73c1.44-1.44,3.79-1.44,5.23,0,1.44,1.44,1.44,3.78,0,5.23-1.44,1.44-3.79,1.44-5.23,0-1.44-1.45-1.44-3.79,0-5.23ZM224.1,251.7c1.46-1.44,3.8-1.44,5.24,0,1.44,1.44,1.44,3.78,0,5.23-1.44,1.45-3.78,1.45-5.24,0-1.44-1.45-1.44-3.79,0-5.23ZM224.02,268.71c1.45-1.46,3.79-1.46,5.23,0,1.44,1.44,1.44,3.78,0,5.21-1.44,1.44-3.78,1.44-5.23,0-1.44-1.44-1.44-3.78,0-5.21ZM223.93,285.69c1.44-1.44,3.78-1.44,5.24,0,1.44,1.44,1.44,3.78,0,5.23-1.46,1.45-3.8,1.45-5.24,0-1.44-1.45-1.44-3.79,0-5.23ZM223.85,302.69c1.44-1.45,3.78-1.45,5.21,0,1.45,1.45,1.45,3.79,0,5.23-1.44,1.44-3.78,1.44-5.21,0-1.44-1.44-1.44-3.78,0-5.23ZM215.65,243.24c1.46-1.44,3.8-1.44,5.24,0,1.44,1.44,1.44,3.78,0,5.24-1.44,1.44-3.78,1.44-5.24,0-1.44-1.46-1.44-3.8,0-5.24ZM215.57,260.24c1.44-1.45,3.79-1.45,5.23,0,1.44,1.45,1.44,3.79,0,5.23-1.44,1.44-3.79,1.44-5.23,0-1.44-1.44-1.44-3.78,0-5.23ZM215.48,277.24c1.45-1.44,3.78-1.44,5.24,0,1.44,1.44,1.44,3.78,0,5.21-1.46,1.46-3.79,1.46-5.24,0-1.44-1.44-1.44-3.78,0-5.21ZM215.39,294.22c1.44-1.44,3.78-1.44,5.21,0,1.45,1.46,1.45,3.8,0,5.24-1.44,1.44-3.78,1.44-5.21,0-1.44-1.44-1.44-3.78,0-5.24ZM215.3,311.23c1.44-1.44,3.78-1.44,5.23,0,1.44,1.44,1.44,3.78,0,5.21s-3.79,1.45-5.23,0c-1.45-1.44-1.45-3.78,0-5.21ZM207.21,234.79c1.44-1.44,3.79-1.44,5.23,0,1.44,1.44,1.44,3.78,0,5.23s-3.79,1.45-5.23,0c-1.45-1.45-1.45-3.79,0-5.23ZM207.12,251.79c1.44-1.45,3.78-1.45,5.23,0,1.45,1.44,1.45,3.79,0,5.23-1.45,1.44-3.79,1.44-5.23,0-1.44-1.44-1.44-3.79,0-5.23ZM207.02,268.79c1.45-1.44,3.79-1.44,5.23,0,1.45,1.44,1.45,3.78,0,5.21-1.44,1.46-3.78,1.46-5.23,0-1.44-1.44-1.44-3.78,0-5.21ZM206.94,285.78c1.44-1.45,3.78-1.45,5.21,0,1.44,1.44,1.44,3.79,0,5.23-1.44,1.44-3.78,1.44-5.21,0-1.45-1.44-1.45-3.79,0-5.23ZM206.84,302.78c1.45-1.45,3.79-1.45,5.24,0,1.44,1.44,1.44,3.78,0,5.21-1.45,1.46-3.79,1.46-5.24,0-1.44-1.44-1.44-3.78,0-5.21ZM198.67,243.34c1.44-1.44,3.78-1.44,5.23,0,1.45,1.44,1.45,3.79,0,5.23-1.45,1.44-3.79,1.44-5.23,0-1.44-1.44-1.44-3.79,0-5.23ZM198.58,260.34c1.44-1.45,3.78-1.45,5.21,0,1.45,1.44,1.45,3.78,0,5.21-1.44,1.45-3.78,1.45-5.21,0-1.46-1.44-1.46-3.78,0-5.21ZM198.48,277.33c1.45-1.45,3.79-1.45,5.23,0,1.44,1.44,1.44,3.78,0,5.23-1.44,1.44-3.78,1.44-5.23,0-1.44-1.45-1.44-3.79,0-5.23ZM198.39,294.33c1.46-1.45,3.79-1.45,5.24,0,1.44,1.44,1.44,3.78,0,5.21-1.45,1.45-3.78,1.45-5.24,0-1.44-1.44-1.44-3.78,0-5.21ZM198.34,311.29c1.44-1.45,3.78-1.45,5.21,0,1.44,1.45,1.44,3.78,0,5.23-1.44,1.44-3.78,1.44-5.21,0-1.45-1.45-1.45-3.78,0-5.23ZM190.21,234.89c1.44-1.44,3.78-1.44,5.21,0,1.46,1.44,1.46,3.78,0,5.23-1.44,1.44-3.78,1.44-5.21,0-1.44-1.45-1.44-3.79,0-5.23ZM190.13,251.87c1.44-1.44,3.78-1.44,5.21,0,1.44,1.45,1.44,3.79,0,5.24-1.44,1.44-3.78,1.44-5.21,0-1.46-1.45-1.46-3.79,0-5.24ZM190.03,268.88c1.45-1.45,3.79-1.45,5.23,0,1.44,1.44,1.44,3.78,0,5.23-1.44,1.44-3.78,1.44-5.23,0-1.44-1.45-1.44-3.79,0-5.23ZM189.93,285.87c1.45-1.44,3.8-1.44,5.24,0,1.44,1.45,1.44,3.79,0,5.23-1.44,1.45-3.79,1.45-5.24,0-1.44-1.44-1.44-3.78,0-5.23ZM189.87,302.83c1.45-1.44,3.79-1.44,5.23,0,1.45,1.46,1.45,3.8,0,5.24-1.44,1.44-3.78,1.44-5.23,0-1.44-1.44-1.44-3.78,0-5.24ZM181.67,243.42c1.45-1.44,3.79-1.44,5.23,0,1.44,1.46,1.44,3.79,0,5.24-1.44,1.44-3.78,1.44-5.23,0-1.45-1.45-1.45-3.78,0-5.24ZM181.57,260.43c1.44-1.44,3.79-1.44,5.23,0,1.45,1.44,1.45,3.78,0,5.21-1.44,1.45-3.79,1.45-5.23,0-1.44-1.44-1.44-3.78,0-5.21ZM181.48,277.41c1.45-1.44,3.79-1.44,5.24,0,1.44,1.44,1.44,3.79,0,5.24-1.45,1.44-3.79,1.44-5.24,0-1.44-1.45-1.44-3.8,0-5.24ZM181.42,294.38c1.45-1.44,3.79-1.44,5.23,0,1.45,1.45,1.45,3.8,0,5.24-1.44,1.44-3.78,1.44-5.23,0-1.44-1.44-1.44-3.79,0-5.24ZM173.12,251.98c1.44-1.45,3.78-1.45,5.23,0,1.45,1.44,1.45,3.78,0,5.21-1.45,1.45-3.79,1.45-5.23,0-1.44-1.44-1.44-3.78,0-5.21ZM173.04,268.96c1.44-1.44,3.78-1.44,5.23,0,1.44,1.44,1.44,3.79,0,5.24-1.45,1.44-3.79,1.44-5.23,0-1.45-1.45-1.45-3.8,0-5.24ZM172.97,285.92c1.44-1.44,3.79-1.44,5.24,0,1.44,1.45,1.44,3.8,0,5.24-1.45,1.44-3.8,1.44-5.24,0-1.44-1.44-1.44-3.79,0-5.24ZM208.32,327.52c-4.75-1.82-9.41-3.82-14.03-5.94-2.29-1.06-4.59-2.17-6.86-3.32-2.26-1.13-4.54-2.37-6.71-3.72-8.71-5.37-16.72-12.3-22-21.29-1.31-2.28-2.23-4.83-2.71-7.39-.49-2.58-.51-5.21-.27-7.79.26-2.57.87-5.09,1.67-7.52.79-2.42,1.85-4.75,3.1-6.96-1.94,4.68-3.26,9.6-3.41,14.57-.19,4.94.84,9.9,3.46,13.98,2.56,4.23,5.92,7.95,9.55,11.3,3.65,3.38,7.68,6.34,11.92,8.94,4.21,2.64,8.78,4.8,13.28,7.05,4.51,2.23,9.11,4.29,13.72,6.3,9.27,3.96,18.7,7.6,28.37,10.57-9.91-2.06-19.63-5.14-29.09-8.8ZM237.52,316.37c-1.45,1.44-3.79,1.44-5.23,0-1.45-1.45-1.45-3.78,0-5.23,1.44-1.45,3.78-1.45,5.23,0,1.44,1.45,1.44,3.78,0,5.23ZM237.62,299.37c-1.45,1.44-3.8,1.44-5.24,0-1.44-1.44-1.44-3.79,0-5.23,1.44-1.44,3.79-1.44,5.24,0,1.44,1.44,1.44,3.79,0,5.23ZM237.7,282.37c-1.44,1.44-3.78,1.45-5.23,0-1.44-1.44-1.44-3.78,0-5.23,1.45-1.45,3.79-1.45,5.23,0,1.44,1.45,1.44,3.79,0,5.23ZM237.79,265.37c-1.44,1.45-3.78,1.45-5.23,0-1.45-1.44-1.45-3.79,0-5.23,1.45-1.44,3.79-1.44,5.23,0,1.44,1.44,1.44,3.79,0,5.23ZM237.85,248.41c-1.44,1.44-3.78,1.44-5.23,0-1.44-1.44-1.44-3.79,0-5.23,1.45-1.44,3.79-1.44,5.23,0,1.44,1.44,1.44,3.79,0,5.23ZM240.83,302.59c1.45-1.44,3.79-1.44,5.23,0,1.45,1.45,1.45,3.79,0,5.23-1.44,1.44-3.78,1.44-5.23,0-1.44-1.44-1.44-3.78,0-5.23ZM277.19,338.95s-1.02,1.59-6.27,1.45c-5.31-.13-30.77-3.09-30.46-10.01.3-6.91,12.13-6.31,17-11.18,4.86-4.86,4.27-16.71,11.19-17.01s9.88,25.17,10,30.48c.14,5.24-1.45,6.27-1.45,6.27ZM289.92,353.38c-.19,1.22-.43,2.43-.92,3.65-.49-1.22-.74-2.43-.92-3.65-.16-1.22-.25-2.43-.25-3.65s.08-2.43.26-3.65c.19-1.22.42-2.43.91-3.65.49,1.22.72,2.43.91,3.65.18,1.22.26,2.43.26,3.65s-.08,2.43-.25,3.65ZM297.61,360.41c-.19.95-.43,1.88-.92,2.83-.49-.95-.74-1.88-.91-2.83-.18-.95-.26-1.88-.26-2.83s.08-1.88.26-2.82c.19-.95.43-1.88.91-2.83.49.95.74,1.88.92,2.83.16.94.25,1.88.25,2.82s-.07,1.88-.25,2.83ZM305.3,368.69c-.19.92-.43,1.85-.92,2.77-.49-.92-.72-1.85-.91-2.77-.18-.92-.26-1.85-.26-2.77.01-.92.08-1.84.26-2.76.19-.92.43-1.85.91-2.77.49.92.74,1.85.92,2.77.16.92.25,1.84.25,2.76.01.92-.07,1.85-.25,2.77ZM313,376.59c-.19.89-.43,1.78-.91,2.68-.49-.9-.74-1.79-.92-2.68-.18-.9-.26-1.79-.25-2.68,0-.89.08-1.79.25-2.68.19-.89.43-1.78.92-2.68.48.9.72,1.79.91,2.68.18.89.25,1.79.26,2.68,0,.89-.08,1.78-.26,2.68Z"/>
      <path class="cls-3" d="M246.26,381.16c2.78,5.45,6.89,9.55,12.31,12.32l3.75-3.74,1.58-5.52s26.42-26.81,38.24-33.91c11.83-7.1,75.06-2.51,116.7-44.14,28.38-28.38-5.02-63.76-13.26-72.01-8.24-8.23-43.62-41.63-72-13.24-41.64,41.63-37.05,104.87-44.15,116.69-7.1,11.83-33.9,38.24-33.9,38.24l-5.52,1.58-3.75,3.74ZM328.45,265.32c-1.44,1.44-3.78,1.44-5.21,0-1.44-1.44-1.44-3.78,0-5.23,1.44-1.45,3.78-1.45,5.21,0,1.46,1.45,1.46,3.79,0,5.23ZM328.52,282.28c-1.44,1.44-3.78,1.44-5.23,0-1.45-1.44-1.45-3.78,0-5.21,1.45-1.45,3.79-1.45,5.23,0,1.44,1.44,1.44,3.78,0,5.21ZM328.6,299.29c-1.44,1.44-3.78,1.44-5.21,0-1.45-1.46-1.45-3.79,0-5.24s3.78-1.44,5.21,0c1.46,1.45,1.46,3.78,0,5.24ZM336.91,256.86c-1.45,1.44-3.79,1.44-5.23,0-1.44-1.44-1.44-3.78,0-5.23,1.44-1.45,3.78-1.45,5.23,0,1.45,1.45,1.45,3.79,0,5.23ZM336.97,273.83c-1.45,1.44-3.78,1.44-5.23,0-1.45-1.44-1.45-3.78,0-5.23,1.45-1.44,3.78-1.44,5.23,0,1.44,1.45,1.44,3.79,0,5.23ZM337.05,290.82c-1.44,1.45-3.78,1.45-5.21,0-1.44-1.45-1.44-3.78,0-5.23,1.44-1.44,3.78-1.44,5.21,0,1.45,1.45,1.45,3.78,0,5.23ZM353.82,239.96c-1.44,1.44-3.79,1.44-5.23,0-1.44-1.45-1.44-3.79,0-5.23,1.44-1.44,3.79-1.44,5.23,0,1.44,1.44,1.44,3.78,0,5.23ZM353.89,256.92c-1.46,1.45-3.8,1.45-5.24,0s-1.44-3.79,0-5.23,3.78-1.44,5.24,0c1.44,1.44,1.44,3.78,0,5.23ZM353.97,273.92c-1.45,1.44-3.79,1.44-5.23,0-1.44-1.44-1.44-3.78,0-5.21,1.44-1.46,3.78-1.46,5.23,0,1.44,1.44,1.44,3.78,0,5.21ZM354.06,290.92c-1.44,1.45-3.78,1.45-5.24,0-1.44-1.45-1.44-3.79,0-5.23,1.46-1.44,3.8-1.44,5.24,0,1.44,1.44,1.44,3.78,0,5.23ZM354.14,307.91c-1.44,1.44-3.78,1.44-5.21,0-1.45-1.44-1.45-3.78,0-5.23,1.44-1.45,3.78-1.45,5.21,0,1.44,1.45,1.44,3.79,0,5.23ZM362.34,248.48c-1.46,1.44-3.8,1.44-5.24,0-1.44-1.46-1.44-3.8,0-5.24,1.44-1.44,3.78-1.44,5.24,0,1.44,1.44,1.44,3.78,0,5.24ZM362.42,265.47c-1.44,1.44-3.79,1.44-5.23,0-1.44-1.44-1.44-3.78,0-5.23,1.44-1.45,3.79-1.45,5.23,0,1.44,1.45,1.44,3.79,0,5.23ZM362.51,282.45c-1.45,1.46-3.78,1.46-5.24,0-1.44-1.44-1.44-3.78,0-5.21,1.46-1.44,3.79-1.44,5.24,0,1.44,1.44,1.44,3.78,0,5.21ZM362.6,299.46c-1.44,1.44-3.78,1.44-5.21,0-1.45-1.44-1.45-3.78,0-5.24,1.44-1.44,3.78-1.44,5.21,0,1.44,1.46,1.44,3.8,0,5.24ZM362.69,316.45c-1.44,1.45-3.78,1.45-5.23,0s-1.44-3.78,0-5.21c1.45-1.44,3.79-1.44,5.23,0,1.45,1.44,1.45,3.78,0,5.21ZM370.78,240.02c-1.44,1.45-3.79,1.45-5.23,0-1.44-1.45-1.44-3.79,0-5.23s3.79-1.44,5.23,0c1.45,1.44,1.45,3.78,0,5.23ZM370.87,257.02c-1.44,1.44-3.78,1.44-5.23,0-1.45-1.44-1.45-3.79,0-5.23,1.45-1.45,3.79-1.45,5.23,0,1.44,1.44,1.44,3.79,0,5.23ZM370.97,274c-1.45,1.46-3.79,1.46-5.23,0-1.45-1.44-1.45-3.78,0-5.21,1.44-1.44,3.78-1.44,5.23,0,1.44,1.44,1.44,3.78,0,5.21ZM371.05,291.01c-1.44,1.44-3.78,1.44-5.21,0-1.44-1.44-1.44-3.79,0-5.23,1.44-1.45,3.78-1.45,5.21,0,1.45,1.44,1.45,3.79,0,5.23ZM371.15,308c-1.45,1.46-3.79,1.46-5.24,0-1.44-1.44-1.44-3.78,0-5.21,1.45-1.45,3.79-1.45,5.24,0,1.44,1.44,1.44,3.78,0,5.21ZM379.32,248.56c-1.44,1.44-3.78,1.44-5.23,0-1.45-1.44-1.45-3.79,0-5.23,1.45-1.44,3.79-1.44,5.23,0,1.44,1.44,1.44,3.79,0,5.23ZM379.41,265.55c-1.44,1.45-3.78,1.45-5.21,0-1.45-1.44-1.45-3.78,0-5.21,1.44-1.45,3.78-1.45,5.21,0,1.46,1.44,1.46,3.78,0,5.21ZM379.51,282.56c-1.45,1.44-3.79,1.44-5.23,0-1.44-1.45-1.44-3.79,0-5.23,1.44-1.45,3.78-1.45,5.23,0,1.44,1.44,1.44,3.78,0,5.23ZM379.61,299.54c-1.46,1.45-3.79,1.45-5.24,0-1.44-1.44-1.44-3.78,0-5.21,1.45-1.45,3.78-1.45,5.24,0,1.44,1.44,1.44,3.78,0,5.21ZM379.65,316.52c-1.44,1.44-3.78,1.44-5.21,0-1.44-1.45-1.44-3.78,0-5.23,1.44-1.45,3.78-1.45,5.21,0,1.45,1.45,1.45,3.78,0,5.23ZM387.78,240.11c-1.44,1.44-3.78,1.44-5.21,0-1.46-1.45-1.46-3.79,0-5.23,1.44-1.44,3.78-1.44,5.21,0,1.44,1.44,1.44,3.78,0,5.23ZM387.86,257.11c-1.44,1.44-3.78,1.44-5.21,0-1.44-1.45-1.44-3.79,0-5.24,1.44-1.44,3.78-1.44,5.21,0,1.46,1.45,1.46,3.79,0,5.24ZM387.96,274.11c-1.45,1.44-3.79,1.44-5.23,0-1.44-1.45-1.44-3.79,0-5.23,1.44-1.45,3.78-1.45,5.23,0s1.44,3.78,0,5.23ZM388.06,291.09c-1.45,1.45-3.8,1.45-5.24,0-1.44-1.44-1.44-3.78,0-5.23,1.44-1.44,3.79-1.44,5.24,0,1.44,1.45,1.44,3.79,0,5.23ZM388.12,308.07c-1.45,1.44-3.79,1.44-5.23,0-1.45-1.44-1.45-3.78,0-5.24,1.44-1.44,3.78-1.44,5.23,0,1.44,1.46,1.44,3.8,0,5.24ZM396.32,248.66c-1.45,1.44-3.79,1.44-5.23,0-1.44-1.45-1.44-3.78,0-5.24,1.44-1.44,3.78-1.44,5.23,0,1.45,1.46,1.45,3.79,0,5.24ZM396.42,265.64c-1.44,1.45-3.79,1.45-5.23,0-1.45-1.44-1.45-3.78,0-5.21,1.44-1.44,3.79-1.44,5.23,0,1.44,1.44,1.44,3.78,0,5.21ZM396.51,282.65c-1.45,1.44-3.79,1.44-5.24,0-1.44-1.45-1.44-3.8,0-5.24,1.45-1.44,3.79-1.44,5.24,0,1.44,1.44,1.44,3.79,0,5.24ZM396.57,299.61c-1.45,1.44-3.79,1.44-5.23,0-1.45-1.44-1.45-3.79,0-5.24,1.44-1.44,3.78-1.44,5.23,0,1.44,1.45,1.44,3.8,0,5.24ZM404.87,257.19c-1.44,1.45-3.78,1.45-5.23,0-1.45-1.44-1.45-3.78,0-5.21,1.45-1.45,3.79-1.45,5.23,0,1.44,1.44,1.44,3.78,0,5.21ZM404.95,274.2c-1.44,1.44-3.78,1.44-5.23,0-1.44-1.45-1.44-3.8,0-5.24,1.45-1.44,3.79-1.44,5.23,0,1.45,1.44,1.45,3.79,0,5.24ZM405.02,291.16c-1.44,1.44-3.79,1.44-5.24,0-1.44-1.44-1.44-3.79,0-5.24,1.45-1.44,3.8-1.44,5.24,0,1.44,1.45,1.44,3.8,0,5.24ZM340.58,336.32c9.67-2.97,19.1-6.6,28.37-10.57,4.62-2.01,9.21-4.07,13.72-6.3,4.5-2.24,9.07-4.41,13.28-7.05,4.24-2.61,8.28-5.56,11.92-8.94,3.64-3.36,6.99-7.07,9.55-11.3,2.62-4.08,3.65-9.04,3.46-13.98-.15-4.97-1.47-9.89-3.41-14.57,1.25,2.21,2.3,4.54,3.1,6.96.81,2.43,1.41,4.94,1.67,7.52.25,2.57.22,5.2-.27,7.79-.48,2.56-1.4,5.11-2.71,7.39-5.28,8.99-13.29,15.92-22,21.29-2.17,1.34-4.45,2.58-6.71,3.72-2.27,1.15-4.57,2.26-6.86,3.32-4.62,2.12-9.28,4.12-14.03,5.94-9.46,3.66-19.17,6.75-29.09,8.8ZM340.47,311.14c1.45-1.45,3.79-1.45,5.23,0,1.45,1.45,1.45,3.78,0,5.23-1.44,1.44-3.78,1.44-5.23,0-1.44-1.45-1.44-3.78,0-5.23ZM340.37,294.14c1.45-1.44,3.8-1.44,5.24,0,1.44,1.44,1.44,3.79,0,5.23-1.44,1.44-3.79,1.44-5.24,0-1.44-1.44-1.44-3.79,0-5.23ZM340.29,277.15c1.44-1.45,3.78-1.45,5.23,0,1.44,1.45,1.44,3.79,0,5.23-1.45,1.45-3.79,1.44-5.23,0-1.44-1.44-1.44-3.78,0-5.23ZM340.2,260.15c1.44-1.44,3.78-1.44,5.23,0,1.45,1.44,1.45,3.79,0,5.23-1.45,1.45-3.79,1.45-5.23,0-1.44-1.44-1.44-3.79,0-5.23ZM340.14,243.19c1.44-1.44,3.78-1.44,5.23,0,1.44,1.44,1.44,3.79,0,5.23-1.45,1.44-3.79,1.44-5.23,0-1.44-1.44-1.44-3.79,0-5.23ZM337.16,307.82c-1.45,1.44-3.79,1.44-5.23,0-1.45-1.44-1.45-3.78,0-5.23,1.44-1.44,3.78-1.44,5.23,0,1.44,1.45,1.44,3.79,0,5.23ZM299.35,332.69c.12-5.31,3.07-30.78,10-30.48s6.32,12.15,11.19,17.01c4.86,4.86,16.69,4.27,17,11.18.3,6.92-25.16,9.88-30.46,10.01-5.25.14-6.27-1.45-6.27-1.45,0,0-1.59-1.03-1.45-6.27ZM287.83,349.73c0-1.22.08-2.43.26-3.65.19-1.22.42-2.43.91-3.65.49,1.22.72,2.43.91,3.65.18,1.22.26,2.43.26,3.65s-.08,2.43-.25,3.65c-.19,1.22-.43,2.43-.92,3.65-.49-1.22-.74-2.43-.92-3.65-.16-1.22-.25-2.43-.25-3.65ZM280.13,357.59c0-.94.08-1.88.25-2.82.19-.95.43-1.88.92-2.83.48.95.72,1.88.91,2.83.18.94.26,1.88.26,2.82s-.08,1.88-.26,2.83c-.18.95-.42,1.88-.91,2.83-.49-.95-.74-1.88-.92-2.83-.18-.95-.25-1.88-.25-2.83ZM272.44,365.92c0-.92.08-1.84.25-2.76.19-.92.43-1.85.92-2.77.48.92.72,1.85.91,2.77.18.92.25,1.84.26,2.76,0,.92-.08,1.85-.26,2.77-.19.92-.42,1.85-.91,2.77-.49-.92-.74-1.85-.92-2.77-.18-.92-.26-1.85-.25-2.77ZM264.74,373.92c.01-.89.08-1.79.26-2.68.19-.89.43-1.78.91-2.68.49.9.74,1.79.92,2.68.16.89.25,1.79.25,2.68.01.89-.07,1.78-.25,2.68-.19.89-.43,1.78-.92,2.68-.48-.9-.72-1.79-.91-2.68-.18-.9-.26-1.79-.26-2.68Z"/>
    </g>
    <g class="cls-5">
      <path class="cls-4" d="M266.4,219.41c-1.03,1.11-2.24,1.96-3.55,2.62-.02-.28-.02-.56-.02-.84,0-6.37,2.28-12.22,6.07-16.75-.06,2.24.14,4.55.16,6.75.02,3.04-.54,5.94-2.65,8.23Z"/>
      <path class="cls-4" d="M279.27,233.54c.78,5.77,4.82,10.63,9.91,13.27.36.19.72.36,1.09.51-.42.02-.84.04-1.27.04-13.34,0-24.34-9.97-25.95-22.87h0c3.97-1.84,7.25-4.95,8.07-9.54.71-4-.62-8.99.29-13.14,4.64-4.22,10.83-6.8,17.59-6.8,9.71,0,18.19,5.3,22.7,13.15-2.49,2.09-5.32,3.78-8.37,4.91-5.68,2.1-12.12,2.2-17.36,5.47-5.09,3.18-7.49,9.13-6.7,15Z"/>
      <path class="cls-4" d="M315.17,221.19c0,12.2-8.34,22.44-19.64,25.34-1.64-.29-3.24-.81-4.77-1.54-4.94-2.41-8.93-7.07-9.28-12.72-.37-6.01,2.97-10.97,8.53-13.13,5.23-2.05,10.93-2.37,16.09-4.7,2.4-1.09,4.65-2.49,6.69-4.15,1.53,3.32,2.38,7,2.38,10.9Z"/>
    </g>
  </g>
</svg>